<?xml version="1.0" encoding="utf-8"?>
<!-- Generator: Adobe Illustrator 15.0.0, SVG Export Plug-In . SVG Version: 6.00 Build 0)  -->
<!DOCTYPE svg PUBLIC "-//W3C//DTD SVG 1.1//EN" "http://www.w3.org/Graphics/SVG/1.1/DTD/svg11.dtd">
<svg version="1.1" id="Layer_1" xmlns="http://www.w3.org/2000/svg" xmlns:xlink="http://www.w3.org/1999/xlink" x="0px" y="0px"
	 width="716.963px" height="497.274px" viewBox="0 0 716.963 497.274" enable-background="new 0 0 716.963 497.274"
	 xml:space="preserve">
<g>
	<defs>
		<rect id="SVGID_1_" y="0.001" width="716.963" height="497.273"/>
	</defs>
	<clipPath id="SVGID_2_">
		<use xlink:href="#SVGID_1_"  overflow="visible"/>
	</clipPath>
	<path clip-path="url(#SVGID_2_)" fill="#FFFFFF" d="M716.964,248.637c0,137.318-160.498,248.637-358.482,248.637
		C160.498,497.274,0,385.956,0,248.637C0,111.319,160.498,0,358.481,0C556.466,0,716.964,111.319,716.964,248.637"/>
	<path clip-path="url(#SVGID_2_)" fill="#B98D2F" d="M711.922,248.637c0,133.903-158.24,242.453-353.44,242.453
		c-195.2,0-353.439-108.55-353.439-242.453c0-133.903,158.24-242.454,353.439-242.454
		C553.682,6.183,711.922,114.734,711.922,248.637"/>
	<path clip-path="url(#SVGID_2_)" fill="#FFFFFF" d="M704.718,248.637c0,131.174-155.015,237.512-346.236,237.512
		c-191.221,0-346.236-106.338-346.236-237.512S167.261,11.125,358.481,11.125C549.703,11.125,704.718,117.463,704.718,248.637"/>
	<path clip-path="url(#SVGID_2_)" fill="#B98D2F" d="M615.016,146.584H105.559c-0.922,0-1.67-0.694-1.67-1.551
		s0.748-1.551,1.67-1.551h509.457c0.922,0,1.67,0.694,1.67,1.551S615.938,146.584,615.016,146.584"/>
	<path clip-path="url(#SVGID_2_)" fill="#B98D2F" d="M360.285,100.048c0,0-16.816-26.433-16.816-37.037
		c0-10.603,16.816-37.036,16.816-37.036s16.816,26.433,16.816,37.036C377.102,73.615,360.285,100.048,360.285,100.048"/>
	<path clip-path="url(#SVGID_2_)" fill="#B98D2F" d="M367.028,119.383c0,3.723-3.02,6.741-6.741,6.741
		c-3.723,0-6.741-3.018-6.741-6.741s3.018-6.74,6.741-6.74C364.009,112.643,367.028,115.66,367.028,119.383"/>
	<path clip-path="url(#SVGID_2_)" fill="#B98D2F" d="M438.519,102.217c-0.567-18.35,28.099-20.269,28.099-1.903
		c0,18.367-42.445,33.805-73.833,26.296c-30.818-7.374-14.85-38.795-3.467-46.794c14.25-10.014,36.01-1.287,23.108,21.568
		c-7.563,13.397-25.811-0.059-18.486-6.163c9.243-7.702,17.716-18.294,7.221-17.62c-8.915,0.573-18.567,12.135-21.086,25.387
		c-2.438,12.838,7.703,18.551,22.724,20.668c15.02,2.119,48.333-3.401,58.347-15.34s-3.563-20.22-7.028-18.101
		c-3.466,2.118-1.637,15.537-7.993,17.523C440.427,109.52,438.614,105.332,438.519,102.217"/>
	<path clip-path="url(#SVGID_2_)" fill="#B98D2F" d="M393.554,117.063c-0.771,2.214,12.865,4.715,22.338,4.044
		c12.198-0.865,24.852-4.777,25.611-5.97c1.348-2.118-11.012,1.494-25.996,2.699C404.338,118.735,394.403,114.621,393.554,117.063"
		/>
	<path clip-path="url(#SVGID_2_)" fill="#B98D2F" d="M481.107,123.785c-18.414-1.929-13.358-34.143,4.107-34.148
		c17.524-0.005,44.598,37.212,53.47,28.243c9.114-9.215-2.15-12.934-3.596-13.608c-1.443-0.674-0.095-3.608,2.601-2.141
		c2.695,1.467,8.634,6.57,6.6,12.604c-2.02,5.992-8.044,10.783-18.635,4.268c-9.695-5.964-28.484-22.225-33.058-24.488
		c-3.82-1.89-11.715-3.338-15.276,3.113c-3.563,6.451-4.059,14.231-1.42,16.382c6.259,5.103,7.752-2.999,8.93-8.39
		c2.504-11.458,13.961-4.525,13.19,4.044C497.555,114.854,491.827,124.909,481.107,123.785"/>
	<path clip-path="url(#SVGID_2_)" fill="#B98D2F" d="M468.045,93.039c1.018-13.828-11.082-24.396-16.496-22.337
		c-4.558,1.733-4.446,7.343,2.326,9.981C465.558,85.232,467.019,88.963,468.045,93.039"/>
	<path clip-path="url(#SVGID_2_)" fill="#B98D2F" d="M471,92.177c1.263-17.773,24.471-27.512,33.373-23.294
		c7.493,3.551,6.075,10.605-6.199,11.915C477.002,83.057,473.665,87.334,471,92.177"/>
	<path clip-path="url(#SVGID_2_)" fill="#B98D2F" d="M494.267,87.904c6.547,5.841,26.959,18.851,29.591,21.503
		C526.038,109.407,508.963,92.269,494.267,87.904"/>
	<path clip-path="url(#SVGID_2_)" fill="#B98D2F" d="M283.511,102.217c0.567-18.35-28.099-20.269-28.099-1.903
		c0,18.367,42.445,33.805,73.833,26.296c30.819-7.374,14.85-38.795,3.467-46.794c-14.25-10.014-36.01-1.287-23.108,21.568
		c7.563,13.397,25.81-0.059,18.486-6.163c-9.243-7.702-17.716-18.294-7.221-17.62c8.915,0.573,18.568,12.135,21.086,25.387
		c2.439,12.838-7.703,18.551-22.723,20.668c-15.02,2.119-48.334-3.401-58.347-15.34c-10.014-11.939,3.562-20.22,7.028-18.101
		c3.466,2.118,1.637,15.537,7.992,17.523C281.602,109.52,283.415,105.332,283.511,102.217"/>
	<path clip-path="url(#SVGID_2_)" fill="#B98D2F" d="M328.475,117.063c0.77,2.214-12.865,4.715-22.338,4.044
		c-12.198-0.865-24.852-4.777-25.611-5.97c-1.348-2.118,11.011,1.494,25.996,2.699C317.691,118.735,327.625,114.621,328.475,117.063
		"/>
	<path clip-path="url(#SVGID_2_)" fill="#B98D2F" d="M240.921,123.785c18.414-1.929,13.359-34.143-4.108-34.148
		c-17.523-0.005-44.597,37.212-53.469,28.243c-9.115-9.215,2.15-12.934,3.595-13.608c1.444-0.674,0.096-3.608-2.6-2.141
		c-2.696,1.467-8.633,6.57-6.6,12.604c2.02,5.992,8.044,10.783,18.636,4.268c9.695-5.964,28.483-22.225,33.056-24.488
		c3.821-1.89,11.715-3.338,15.277,3.113c3.563,6.451,4.058,14.231,1.42,16.382c-6.258,5.103-7.752-2.999-8.93-8.39
		c-2.503-11.458-13.961-4.525-13.191,4.044C224.474,114.854,230.202,124.909,240.921,123.785"/>
	<path clip-path="url(#SVGID_2_)" fill="#B98D2F" d="M253.984,93.039c-1.018-13.828,11.083-24.396,16.497-22.337
		c4.557,1.733,4.446,7.343-2.327,9.981C256.471,85.232,255.011,88.963,253.984,93.039"/>
	<path clip-path="url(#SVGID_2_)" fill="#B98D2F" d="M251.029,92.177c-1.263-17.773-24.471-27.512-33.373-23.294
		c-7.493,3.551-6.075,10.605,6.2,11.915C245.027,83.057,248.364,87.334,251.029,92.177"/>
	<path clip-path="url(#SVGID_2_)" fill="#B98D2F" d="M227.763,87.904c-6.547,5.841-26.959,18.851-29.591,21.503
		C195.99,109.407,213.065,92.269,227.763,87.904"/>
	<path clip-path="url(#SVGID_2_)" fill="#B98D2F" d="M471,92.177c1.263-17.773,24.471-27.512,33.373-23.294
		c7.493,3.551,6.075,10.605-6.199,11.915C477.002,83.057,473.665,87.334,471,92.177"/>
	<path clip-path="url(#SVGID_2_)" fill="#B98D2F" d="M656.579,308.611H63.995c-1.073,0-1.943-0.869-1.943-1.942
		s0.87-1.942,1.943-1.942h592.584c1.073,0,1.942,0.869,1.942,1.942S657.652,308.611,656.579,308.611"/>
	<path clip-path="url(#SVGID_2_)" fill="#B98D2F" d="M352.755,376.507c0-4.663,3.78-8.442,8.443-8.442s8.442,3.779,8.442,8.442
		s-3.779,8.442-8.442,8.442S352.755,381.17,352.755,376.507"/>
	<path clip-path="url(#SVGID_2_)" fill="#B98D2F" d="M361.198,392.324c0,0,16.816,26.434,16.816,37.037
		c0,10.603-16.816,37.035-16.816,37.035s-16.816-26.433-16.816-37.035C344.382,418.757,361.198,392.324,361.198,392.324"/>
	<path clip-path="url(#SVGID_2_)" fill="#B98D2F" d="M263.215,398.007c0.71,22.982-35.193,25.387-35.193,2.383
		s53.161-42.341,92.474-32.934c38.6,9.235,18.599,48.589,4.342,58.607c-17.848,12.542-45.102,1.612-28.943-27.013
		c9.474-16.781,32.327,0.073,23.154,7.718c-11.577,9.647-22.189,22.913-9.044,22.068c11.167-0.717,23.256-15.197,26.41-31.796
		c3.055-16.079-9.648-23.234-28.46-25.888c-18.813-2.652-60.537,4.261-73.079,19.215c-12.542,14.953,4.462,25.324,8.803,22.672
		c4.341-2.653,2.05-19.461,10.009-21.948C260.824,388.862,263.094,394.107,263.215,398.007"/>
	<path clip-path="url(#SVGID_2_)" fill="#B98D2F" d="M319.532,379.414c0.965-2.774-16.113-5.906-27.977-5.065
		c-15.278,1.083-31.127,5.983-32.078,7.477c-1.688,2.652,13.791-1.87,32.56-3.381C306.025,377.319,318.469,382.472,319.532,379.414"
		/>
	<path clip-path="url(#SVGID_2_)" fill="#B98D2F" d="M209.873,370.994c23.063,2.417,16.732,42.764-5.145,42.771
		c-21.948,0.006-55.857-46.607-66.969-35.375c-11.416,11.541,2.693,16.2,4.502,17.045c1.809,0.844,0.12,4.518-3.256,2.681
		c-3.377-1.837-10.813-8.229-8.266-15.785c2.53-7.506,10.074-13.507,23.34-5.347c12.143,7.47,35.675,27.837,41.403,30.671
		c4.786,2.367,14.673,4.181,19.134-3.899c4.463-8.08,5.083-17.823,1.778-20.518c-7.838-6.392-9.709,3.756-11.184,10.509
		c-3.135,14.351-17.486,5.668-16.521-5.065C189.273,382.18,196.447,369.586,209.873,370.994"/>
	<path clip-path="url(#SVGID_2_)" fill="#B98D2F" d="M226.233,409.502c-1.275,17.318,13.88,30.557,20.662,27.978
		c5.708-2.171,5.568-9.197-2.914-12.501C229.348,419.28,227.521,414.608,226.233,409.502"/>
	<path clip-path="url(#SVGID_2_)" fill="#B98D2F" d="M222.532,410.583c-1.582,22.26-30.649,34.458-41.799,29.175
		c-9.385-4.447-7.609-13.283,7.765-14.924C215.014,422.004,219.194,416.647,222.532,410.583"/>
	<path clip-path="url(#SVGID_2_)" fill="#B98D2F" d="M193.392,415.934c-8.2-7.315-33.766-23.609-37.062-26.933
		C153.597,389.001,174.984,410.467,193.392,415.934"/>
	<path clip-path="url(#SVGID_2_)" fill="#B98D2F" d="M457.359,398.007c-0.711,22.982,35.192,25.387,35.192,2.383
		s-53.161-42.341-92.475-32.934c-38.6,9.235-18.599,48.589-4.341,58.607c17.848,12.542,45.102,1.612,28.942-27.013
		c-9.474-16.781-32.327,0.073-23.154,7.718c11.577,9.647,22.188,22.913,9.045,22.068c-11.167-0.717-23.256-15.197-26.41-31.796
		c-3.055-16.079,9.647-23.234,28.46-25.888c18.813-2.652,60.537,4.261,73.079,19.215c12.542,14.953-4.462,25.324-8.804,22.672
		c-4.341-2.653-2.05-19.461-10.009-21.948C459.75,388.862,457.479,394.107,457.359,398.007"/>
	<path clip-path="url(#SVGID_2_)" fill="#B98D2F" d="M401.042,379.414c-0.965-2.774,16.113-5.906,27.978-5.065
		c15.278,1.083,31.127,5.983,32.078,7.477c1.688,2.652-13.791-1.87-32.561-3.381C414.549,377.319,402.104,382.472,401.042,379.414"
		/>
	<path clip-path="url(#SVGID_2_)" fill="#B98D2F" d="M510.701,370.994c-23.063,2.417-16.731,42.764,5.146,42.771
		c21.947,0.006,55.856-46.607,66.969-35.375c11.416,11.541-2.693,16.2-4.502,17.045c-1.81,0.844-0.121,4.518,3.256,2.681
		s10.813-8.229,8.266-15.785c-2.529-7.506-10.074-13.507-23.34-5.347c-12.144,7.47-35.675,27.837-41.403,30.671
		c-4.786,2.367-14.672,4.181-19.134-3.899s-5.083-17.823-1.778-20.518c7.838-6.392,9.709,3.756,11.185,10.509
		c3.135,14.351,17.484,5.668,16.521-5.065C531.301,382.18,524.127,369.586,510.701,370.994"/>
	<path clip-path="url(#SVGID_2_)" fill="#B98D2F" d="M494.341,409.502c1.273,17.318-13.88,30.557-20.661,27.978
		c-5.709-2.171-5.569-9.197,2.914-12.501C491.226,419.28,493.055,414.608,494.341,409.502"/>
	<path clip-path="url(#SVGID_2_)" fill="#B98D2F" d="M498.042,410.583c1.582,22.26,30.648,34.458,41.799,29.175
		c9.385-4.447,7.609-13.283-7.765-14.924C505.56,422.004,501.38,416.647,498.042,410.583"/>
	<path clip-path="url(#SVGID_2_)" fill="#B98D2F" d="M527.183,415.934c8.2-7.315,33.766-23.609,37.062-26.933
		C566.978,389.001,545.59,410.467,527.183,415.934"/>
	<polygon clip-path="url(#SVGID_2_)" fill="#1C8636" points="410.954,331.139 416.444,331.139 420.917,338.398 425.389,331.139 
		430.88,331.139 430.88,349.886 425.712,349.886 425.712,339.12 420.917,346.458 420.81,346.458 416.043,339.147 416.043,349.886 
		410.954,349.886 	"/>
	<path clip-path="url(#SVGID_2_)" fill="#1C8636" d="M443.358,331.004h5.01l7.98,18.882h-5.571l-1.34-3.374h-7.256l-1.339,3.374
		h-5.437L443.358,331.004z M447.913,342.467l-2.089-5.303l-2.117,5.303H447.913z"/>
	<rect x="460.982" y="331.139" clip-path="url(#SVGID_2_)" fill="#1C8636" width="5.195" height="18.747"/>
	<polygon clip-path="url(#SVGID_2_)" fill="#1C8636" points="471.722,346.11 481.12,335.505 472.042,335.505 472.042,331.139 
		488.271,331.139 488.271,334.887 478.871,345.494 488.271,345.494 488.271,349.886 471.722,349.886 	"/>
	<polygon clip-path="url(#SVGID_2_)" fill="#1C8636" points="493.654,331.139 508.733,331.139 508.733,335.531 498.796,335.531 
		498.796,338.398 507.795,338.398 507.795,342.495 498.796,342.495 498.796,345.467 508.867,345.467 508.867,349.886 
		493.654,349.886 	"/>
	<polygon clip-path="url(#SVGID_2_)" fill="#1C8636" points="524.187,331.139 529.677,331.139 534.149,338.398 538.622,331.139 
		544.112,331.139 544.112,349.886 538.944,349.886 538.944,339.12 534.149,346.458 534.043,346.458 529.276,339.147 
		529.276,349.886 524.187,349.886 	"/>
	<polygon clip-path="url(#SVGID_2_)" fill="#1C8636" points="550.11,331.139 565.188,331.139 565.188,335.531 555.252,335.531 
		555.252,338.398 564.251,338.398 564.251,342.495 555.252,342.495 555.252,345.467 565.323,345.467 565.323,349.886 
		550.11,349.886 	"/>
	<path clip-path="url(#SVGID_2_)" fill="#1C8636" d="M577.16,331.004h5.01l7.98,18.882h-5.571l-1.339-3.374h-7.257l-1.339,3.374
		h-5.437L577.16,331.004z M581.715,342.467l-2.089-5.303l-2.117,5.303H581.715z"/>
	<polygon clip-path="url(#SVGID_2_)" fill="#1C8636" points="594.648,331.139 599.845,331.139 599.845,345.333 608.924,345.333 
		608.924,349.886 594.648,349.886 	"/>
	<path clip-path="url(#SVGID_2_)" fill="#1C8636" d="M111.65,330.261h8.598c1.257,0,2.396,0.156,3.414,0.473
		c1.018,0.313,1.89,0.771,2.614,1.37c0.723,0.6,1.281,1.334,1.672,2.2c0.39,0.867,0.586,1.852,0.586,2.956v0.058
		c0,1.18-0.215,2.223-0.643,3.128c-0.43,0.904-1.024,1.661-1.786,2.271c-0.762,0.608-1.667,1.065-2.713,1.37
		c-1.048,0.306-2.192,0.457-3.428,0.457h-2.773v5.714h-5.541V330.261z M119.85,340.203c0.971,0,1.742-0.238,2.313-0.714
		c0.573-0.477,0.858-1.115,0.858-1.913v-0.058c0-0.858-0.285-1.505-0.858-1.942c-0.571-0.439-1.353-0.657-2.341-0.657h-2.63v5.284
		H119.85z"/>
	<path clip-path="url(#SVGID_2_)" fill="#1C8636" d="M133.734,330.261h9.456c1.542,0,2.847,0.191,3.914,0.572
		c1.065,0.382,1.932,0.904,2.598,1.57c1.182,1.181,1.771,2.732,1.771,4.657v0.056c0,1.544-0.371,2.825-1.114,3.843
		c-0.743,1.019-1.742,1.797-2.999,2.328l4.77,6.971h-6.371l-4.027-6.056h-2.457v6.056h-5.541V330.261z M142.961,339.86
		c0.933,0,1.662-0.215,2.185-0.642c0.524-0.43,0.786-1.004,0.786-1.73v-0.056c0-0.8-0.272-1.399-0.814-1.801
		c-0.542-0.399-1.271-0.6-2.187-0.6h-3.656v4.828H142.961z"/>
	<polygon clip-path="url(#SVGID_2_)" fill="#1C8636" points="157.129,330.261 173.212,330.261 173.212,334.946 162.614,334.946 
		162.614,338.002 172.212,338.002 172.212,342.374 162.614,342.374 162.614,345.545 173.355,345.545 173.355,350.258 
		157.129,350.258 	"/>
	<polygon clip-path="url(#SVGID_2_)" fill="#1C8636" points="179.069,330.261 184.925,330.261 189.696,338.002 194.466,330.261 
		200.323,330.261 200.323,350.258 194.808,350.258 194.808,338.775 189.696,346.602 189.581,346.602 184.496,338.803 
		184.496,350.258 179.069,350.258 	"/>
	<rect x="206.865" y="330.261" clip-path="url(#SVGID_2_)" fill="#1C8636" width="5.542" height="19.997"/>
	<path clip-path="url(#SVGID_2_)" fill="#1C8636" d="M227.917,350.629c-1.41,0-2.685-0.181-3.829-0.542
		c-1.142-0.362-2.113-0.919-2.913-1.672c-0.8-0.751-1.414-1.703-1.843-2.856c-0.427-1.152-0.642-2.509-0.642-4.071v-11.227h5.599
		v11.113c0,1.447,0.333,2.518,0.999,3.214c0.668,0.695,1.562,1.043,2.687,1.043c1.142,0,2.047-0.333,2.713-1.001
		c0.666-0.667,0.999-1.704,0.999-3.114v-11.255h5.6v11.084c0,1.601-0.225,2.985-0.671,4.156c-0.449,1.172-1.078,2.138-1.887,2.9
		c-0.809,0.762-1.789,1.323-2.941,1.686C230.635,350.449,229.345,350.629,227.917,350.629"/>
	<polygon clip-path="url(#SVGID_2_)" fill="#1C8636" points="243.43,330.261 249.287,330.261 254.057,338.002 258.828,330.261 
		264.684,330.261 264.684,350.258 259.17,350.258 259.17,338.775 254.057,346.602 253.942,346.602 248.858,338.803 248.858,350.258 
		243.43,350.258 	"/>
	<path clip-path="url(#SVGID_2_)" fill="#1C8636" d="M289.707,350.602c-1.789,0-3.483-0.277-5.084-0.83
		c-1.599-0.551-3.029-1.379-4.286-2.484l3.086-3.685c2.038,1.599,4.199,2.399,6.485,2.399c0.761,0,1.337-0.119,1.728-0.357
		c0.39-0.237,0.586-0.575,0.586-1.015v-0.056c0-0.21-0.048-0.401-0.143-0.572c-0.097-0.172-0.271-0.329-0.529-0.471
		c-0.256-0.144-0.605-0.286-1.043-0.429c-0.437-0.144-0.999-0.3-1.684-0.473c-1.067-0.246-2.057-0.518-2.97-0.813
		c-0.917-0.297-1.711-0.677-2.386-1.144c-0.677-0.466-1.21-1.043-1.601-1.729c-0.39-0.686-0.586-1.543-0.586-2.572v-0.055
		c0-0.934,0.177-1.791,0.529-2.572s0.866-1.458,1.543-2.028c0.676-0.571,1.489-1.015,2.442-1.328s2.028-0.471,3.228-0.471
		c1.714,0,3.243,0.223,4.585,0.671c1.343,0.446,2.557,1.109,3.643,1.984l-2.771,3.914c-0.915-0.666-1.853-1.161-2.814-1.485
		c-0.962-0.324-1.89-0.486-2.786-0.486c-0.666,0-1.167,0.12-1.5,0.356c-0.333,0.24-0.5,0.549-0.5,0.931v0.056
		c0,0.23,0.052,0.429,0.159,0.602c0.103,0.171,0.284,0.327,0.542,0.471c0.256,0.143,0.608,0.286,1.057,0.429
		c0.448,0.144,1.023,0.29,1.727,0.443c1.144,0.247,2.171,0.537,3.087,0.87c0.913,0.334,1.694,0.739,2.341,1.215
		c0.647,0.477,1.144,1.052,1.486,1.728c0.343,0.677,0.514,1.48,0.514,2.414v0.057c0,1.029-0.195,1.942-0.585,2.743
		c-0.391,0.8-0.938,1.48-1.643,2.042c-0.704,0.563-1.552,0.99-2.542,1.286C292.031,350.454,290.926,350.602,289.707,350.602"/>
	<rect x="303.478" y="330.261" clip-path="url(#SVGID_2_)" fill="#1C8636" width="5.541" height="19.997"/>
	<polygon clip-path="url(#SVGID_2_)" fill="#1C8636" points="315.533,330.261 331.531,330.261 331.531,335.117 321.075,335.117 
		321.075,338.517 330.53,338.517 330.53,343.117 321.075,343.117 321.075,350.258 315.533,350.258 	"/>
	<polygon clip-path="url(#SVGID_2_)" fill="#1C8636" points="341.813,335.117 335.843,335.117 335.843,330.262 353.355,330.262 
		353.355,335.117 347.356,335.117 347.356,350.258 341.813,350.258 	"/>
	<polygon clip-path="url(#SVGID_2_)" fill="#1C8636" points="358.64,330.261 374.723,330.261 374.723,334.946 364.125,334.946 
		364.125,338.002 373.724,338.002 373.724,342.374 364.125,342.374 364.125,345.545 374.866,345.545 374.866,350.258 
		358.64,350.258 	"/>
	<path clip-path="url(#SVGID_2_)" fill="#1C8636" d="M380.58,330.261h7.741c1.771,0,3.356,0.242,4.757,0.729
		c1.399,0.486,2.58,1.167,3.541,2.042c0.963,0.877,1.695,1.92,2.2,3.128c0.504,1.21,0.757,2.539,0.757,3.985v0.058
		c0,1.447-0.256,2.785-0.771,4.014s-1.257,2.29-2.229,3.186c-0.971,0.895-2.161,1.596-3.57,2.1c-1.411,0.504-3.01,0.757-4.8,0.757
		h-7.627V330.261z M386.121,335.147v10.198h2.258c1.676,0,3.018-0.438,4.027-1.314c1.01-0.876,1.514-2.124,1.514-3.742v-0.058
		c0-1.618-0.504-2.87-1.514-3.756s-2.352-1.328-4.027-1.328H386.121z"/>
	<path clip-path="url(#SVGID_2_)" fill="#B98D2F" d="M258.739,177.771l-0.009-0.465l37.361,0.002l0.01,0.464
		c-3.648,3.413-5.946,4.967-5.149,10.556l9.403,67.211c1.202,8.694,2.247,17.389,9.315,23.441l0.013,0.466l-41.269,0.002
		l-0.018-0.468c2.578-2.639,5.266-6.831,4.67-11.021l-7.297-54.484l-0.469-0.001l-18.253,67.683
		c-5.356-1.243-10.446-4.196-15.068-7.141c-7.496-4.816-9.57-11.329-12.785-19.252l-16.581-41.289h-0.469l-3.676,53.553
		c-0.307,5.28,2.638,9.626,7.239,11.955l0.018,0.469l-30.797-0.001l-0.014-0.468c6.706-5.591,6.78-13.35,7.463-21.731l5.513-65.202
		c0.448-5.898-2.037-10.551-6.378-14.279l-0.011-0.462l35.955-0.004l0.014,0.467l24.95,59.454L258.739,177.771z"/>
	<path clip-path="url(#SVGID_2_)" fill="#B98D2F" d="M346.194,248.579l-3.491,10.496c-1.021,3.089-2.617,7.879-2.535,11.118
		c0.122,4.317,3.001,6.321,5.902,8.631l0.016,0.46l-32.249,0.069l-0.009-0.466c5.829-5.412,7.751-9.893,10.371-17.767l20.041-61.614
		c0.861-3.084,3.215-9.105,3.126-12.347c-0.116-4.168-3.017-6.94-6.218-8.935l-0.015-0.465l38.539-0.079l31.871,79.397
		c4.042,9.866,4.925,13.416,14.107,21.574l0.015,0.464l-47.498,0.102l-0.012-0.462c3.554-2.325,6.327-4.49,6.194-9.425
		c-0.069-2.623-0.408-3.395-1.417-5.866l-5.595-14.954L346.194,248.579z M360.085,203.796h-0.157l-9.561,30.419l21.39-0.044
		L360.085,203.796z"/>
	<path clip-path="url(#SVGID_2_)" fill="#B98D2F" d="M91.298,248.579l-3.492,10.496c-1.02,3.089-2.616,7.879-2.534,11.118
		c0.121,4.317,3.001,6.321,5.901,8.631l0.017,0.46l-32.249,0.069l-0.009-0.466c5.828-5.412,7.751-9.893,10.37-17.767l20.042-61.614
		c0.861-3.084,3.215-9.105,3.126-12.347c-0.116-4.168-3.017-6.94-6.218-8.935l-0.015-0.465l38.538-0.079l31.872,79.397
		c4.042,9.866,4.924,13.416,14.107,21.574l0.015,0.464l-47.499,0.102l-0.012-0.462c3.555-2.325,6.328-4.49,6.195-9.425
		c-0.07-2.623-0.409-3.395-1.417-5.866l-5.594-14.954L91.298,248.579z M105.189,203.796h-0.159l-9.559,30.419l21.389-0.044
		L105.189,203.796z"/>
	<path clip-path="url(#SVGID_2_)" fill="#B98D2F" d="M466.824,257.488c0.126,7.996-0.85,16.606,6.95,21.403l0.009,0.462
		l-42.425-0.147l-0.009-0.461c7.658-4.742,6.424-13.36,6.298-21.356l-0.882-57.377c-0.119-7.999,0.853-16.764-6.952-21.559
		l-0.003-0.459l42.428,0.148l0.009,0.461c-7.662,4.741-6.42,13.511-6.3,21.511L466.824,257.488z"/>
	<path clip-path="url(#SVGID_2_)" fill="#B98D2F" d="M518.962,263.218l19.137,1.379c13.905-0.013,21.614-2.472,33.379-9.535
		l-8.548,24.261l-85.002,0.03l46.011-85.825l-12.499-0.769c-10.578,0.007-18.137,2.467-27.392,7.38l8.097-21.804l72.521-0.027
		L518.962,263.218z"/>
	<path clip-path="url(#SVGID_2_)" fill="#B98D2F" d="M611.696,262.282c5.229,2.004,11.078,2.319,16.621,2.325
		c8.857,0.013,17.082-1.355,23.08-8.403l0.791-0.001l-6.281,23.15l-70.094-0.096l0.005-0.457c7.738-4.747,6.62-13.336,6.6-21.311
		l-0.109-57.367c-0.012-7.975,1.076-16.715-6.686-21.327v-0.461l55.373,0.079c2.378,0,4.906,0.006,6.644-0.759l0.477,0.001
		l0.042,22.237l-0.472,0.002c-4.291-7.216-13.303-6.461-21.06-6.47l-5.062-0.009l0.046,24.847l14.717,0.02
		c2.213,0.003,4.43-0.143,5.856-0.758l0.786,0.002l0.04,21.475l-0.79-0.006c-2.228-6.136-9.503-5.532-15.354-5.543l-5.224-0.005
		L611.696,262.282z"/>
	<path clip-path="url(#SVGID_2_)" fill="#FFFFFF" d="M256.673,176.287l-0.009-0.465l37.361,0.002l0.01,0.464
		c-3.648,3.413-5.946,4.966-5.149,10.556l9.403,67.211c1.202,8.694,2.247,17.389,9.315,23.441l0.013,0.466l-41.269,0.002
		l-0.018-0.468c2.578-2.639,5.266-6.831,4.67-11.021l-7.297-54.484l-0.469-0.001l-18.253,67.683
		c-5.356-1.243-10.446-4.196-15.068-7.141c-7.496-4.816-9.57-11.329-12.785-19.252l-16.581-41.289h-0.469l-3.676,53.553
		c-0.307,5.28,2.638,9.626,7.24,11.955l0.017,0.469l-30.797-0.001l-0.014-0.468c6.706-5.591,6.78-13.35,7.463-21.731l5.513-65.202
		c0.448-5.898-2.037-10.551-6.378-14.279l-0.011-0.462l35.955-0.004l0.014,0.467l24.95,59.454L256.673,176.287z"/>
	<path clip-path="url(#SVGID_2_)" fill="#FFFFFF" d="M344.128,247.095l-3.491,10.496c-1.021,3.089-2.617,7.879-2.535,11.118
		c0.122,4.317,3.001,6.321,5.902,8.631l0.016,0.46l-32.249,0.069l-0.009-0.466c5.829-5.412,7.751-9.893,10.371-17.767l20.041-61.614
		c0.861-3.084,3.215-9.105,3.126-12.347c-0.116-4.168-3.017-6.94-6.218-8.935l-0.015-0.465l38.539-0.079l31.871,79.397
		c4.042,9.866,4.926,13.416,14.107,21.574l0.015,0.464l-47.498,0.102l-0.012-0.462c3.555-2.325,6.327-4.49,6.194-9.425
		c-0.069-2.623-0.408-3.395-1.417-5.866l-5.594-14.954L344.128,247.095z M358.019,202.313h-0.158l-9.56,30.419l21.39-0.044
		L358.019,202.313z"/>
	<path clip-path="url(#SVGID_2_)" fill="#FFFFFF" d="M89.232,247.095l-3.492,10.496c-1.02,3.089-2.616,7.879-2.534,11.118
		c0.121,4.317,3.001,6.321,5.902,8.631l0.016,0.46l-32.249,0.069l-0.009-0.466c5.828-5.412,7.751-9.893,10.37-17.767l20.042-61.614
		c0.861-3.084,3.215-9.105,3.126-12.347c-0.116-4.168-3.017-6.94-6.218-8.935l-0.015-0.465l38.538-0.079l31.872,79.397
		c4.042,9.866,4.924,13.416,14.107,21.574l0.015,0.464l-47.499,0.102l-0.012-0.462c3.555-2.325,6.328-4.49,6.195-9.425
		c-0.07-2.623-0.409-3.395-1.417-5.866l-5.594-14.954L89.232,247.095z M103.123,202.313h-0.159l-9.559,30.419l21.389-0.044
		L103.123,202.313z"/>
	<path clip-path="url(#SVGID_2_)" fill="#FFFFFF" d="M464.759,256.004c0.125,7.996-0.851,16.606,6.949,21.403l0.009,0.462
		l-42.425-0.147l-0.009-0.461c7.658-4.742,6.424-13.36,6.298-21.356l-0.882-57.377c-0.119-7.999,0.853-16.764-6.952-21.559
		l-0.003-0.459l42.428,0.148l0.009,0.461c-7.662,4.741-6.42,13.511-6.3,21.511L464.759,256.004z"/>
	<path clip-path="url(#SVGID_2_)" fill="#FFFFFF" d="M516.896,261.735l19.137,1.379c13.905-0.013,21.614-2.472,33.38-9.535
		l-8.549,24.261l-85.002,0.03l46.011-85.825l-12.499-0.769c-10.579,0.007-18.137,2.467-27.392,7.38l8.097-21.804l72.521-0.027
		L516.896,261.735z"/>
	<path clip-path="url(#SVGID_2_)" fill="#FFFFFF" d="M609.63,260.798c5.229,2.004,11.078,2.319,16.621,2.325
		c8.857,0.013,17.082-1.356,23.08-8.403l0.791-0.001l-6.281,23.15l-70.094-0.096l0.005-0.457c7.738-4.748,6.62-13.336,6.6-21.311
		l-0.109-57.367c-0.012-7.975,1.076-16.715-6.686-21.327v-0.461l55.373,0.079c2.378,0,4.906,0.006,6.644-0.759l0.477,0.001
		l0.042,22.237l-0.472,0.002c-4.291-7.216-13.303-6.461-21.06-6.47l-5.062-0.009l0.046,24.847l14.717,0.019
		c2.213,0.004,4.43-0.142,5.856-0.757l0.786,0.002l0.04,21.475l-0.79-0.006c-2.228-6.136-9.503-5.532-15.354-5.543l-5.224-0.005
		L609.63,260.798z"/>
	<path clip-path="url(#SVGID_2_)" fill="#1C8636" d="M254.068,174.602l-0.009-0.465l37.361,0.002l0.01,0.464
		c-3.648,3.413-5.946,4.967-5.149,10.556l9.403,67.212c1.202,8.693,2.247,17.389,9.315,23.439l0.013,0.467l-41.269,0.002
		l-0.018-0.469c2.578-2.638,5.266-6.829,4.67-11.021l-7.297-54.484h-0.469l-18.253,67.682c-5.356-1.243-10.446-4.196-15.068-7.141
		c-7.496-4.816-9.57-11.33-12.785-19.251l-16.581-41.29h-0.469l-3.676,53.554c-0.307,5.279,2.638,9.626,7.239,11.954l0.018,0.469
		l-30.797-0.001l-0.014-0.468c6.706-5.591,6.78-13.349,7.463-21.73l5.513-65.203c0.448-5.898-2.037-10.551-6.378-14.279
		l-0.011-0.462l35.955-0.003l0.014,0.466l24.95,59.455L254.068,174.602z"/>
	<path clip-path="url(#SVGID_2_)" fill="#1C8636" d="M341.523,245.41l-3.491,10.497c-1.021,3.088-2.617,7.878-2.535,11.117
		c0.122,4.317,3.001,6.321,5.902,8.631l0.016,0.46l-32.249,0.069l-0.009-0.466c5.829-5.411,7.751-9.893,10.371-17.767l20.041-61.614
		c0.861-3.085,3.215-9.105,3.126-12.347c-0.116-4.168-3.017-6.94-6.218-8.936l-0.015-0.464L375,174.512l31.872,79.397
		c4.042,9.866,4.925,13.416,14.107,21.574l0.015,0.465l-47.498,0.101l-0.012-0.461c3.554-2.325,6.327-4.491,6.194-9.426
		c-0.069-2.623-0.408-3.395-1.417-5.866l-5.594-14.954L341.523,245.41z M355.415,200.628h-0.158l-9.56,30.419l21.39-0.045
		L355.415,200.628z"/>
	<path clip-path="url(#SVGID_2_)" fill="#1C8636" d="M86.627,245.41l-3.492,10.497c-1.02,3.088-2.616,7.878-2.534,11.117
		c0.121,4.317,3.001,6.321,5.901,8.631l0.017,0.46l-32.249,0.069l-0.009-0.466c5.828-5.411,7.751-9.893,10.37-17.767l20.042-61.614
		c0.861-3.085,3.215-9.105,3.126-12.347c-0.116-4.168-3.017-6.94-6.218-8.936l-0.015-0.464l38.538-0.079l31.872,79.397
		c4.042,9.866,4.924,13.416,14.107,21.574l0.015,0.465l-47.499,0.101l-0.012-0.461c3.555-2.325,6.328-4.491,6.195-9.426
		c-0.07-2.623-0.409-3.395-1.417-5.866l-5.594-14.954L86.627,245.41z M100.519,200.628h-0.159L90.8,231.047l21.389-0.045
		L100.519,200.628z"/>
	<path clip-path="url(#SVGID_2_)" fill="#1C8636" d="M462.153,254.319c0.126,7.996-0.85,16.606,6.95,21.403l0.009,0.462
		l-42.425-0.146l-0.008-0.462c7.657-4.742,6.423-13.36,6.297-21.356l-0.882-57.377c-0.119-7.998,0.853-16.763-6.952-21.559
		l-0.003-0.459l42.428,0.148l0.009,0.461c-7.662,4.741-6.42,13.512-6.3,21.511L462.153,254.319z"/>
	<path clip-path="url(#SVGID_2_)" fill="#1C8636" d="M514.291,260.05l19.137,1.378c13.905-0.013,21.614-2.472,33.379-9.534
		l-8.548,24.261l-85.002,0.029l46.011-85.825l-12.499-0.768c-10.578,0.006-18.137,2.466-27.392,7.379l8.097-21.804l72.521-0.027
		L514.291,260.05z"/>
	<path clip-path="url(#SVGID_2_)" fill="#1C8636" d="M607.025,259.113c5.229,2.004,11.078,2.32,16.621,2.326
		c8.857,0.012,17.082-1.356,23.08-8.404l0.791-0.001l-6.281,23.15l-70.094-0.096l0.005-0.457c7.738-4.747,6.62-13.336,6.6-21.311
		l-0.109-57.366c-0.012-7.976,1.076-16.716-6.686-21.327v-0.462l55.373,0.079c2.378,0.001,4.906,0.006,6.644-0.759l0.477,0.001
		l0.042,22.237l-0.472,0.002c-4.291-7.216-13.303-6.461-21.06-6.47l-5.062-0.009l0.046,24.848l14.717,0.019
		c2.213,0.003,4.43-0.143,5.856-0.757l0.785,0.001l0.041,21.475l-0.791-0.006c-2.227-6.135-9.502-5.532-15.354-5.543l-5.224-0.005
		L607.025,259.113z"/>
	<path clip-path="url(#SVGID_2_)" fill="#1C8636" d="M666.313,185.047c0,5.32-4.171,9.49-9.49,9.49c-5.26,0-9.489-4.17-9.489-9.49
		c0-5.259,4.229-9.429,9.489-9.429C662.142,175.618,666.313,179.788,666.313,185.047 M649.629,185.047
		c0,4.23,3.083,7.557,7.193,7.557s7.134-3.327,7.134-7.557c0-4.109-3.023-7.496-7.134-7.496S649.629,180.938,649.629,185.047
		 M655.311,189.943h-1.994v-9.369c0.785-0.181,1.873-0.362,3.386-0.362c1.691,0,2.478,0.302,3.143,0.786
		c0.544,0.361,0.966,1.087,0.966,1.993c0,1.09-0.905,1.876-1.993,2.237v0.121c0.968,0.303,1.391,1.029,1.693,2.296
		c0.3,1.392,0.483,1.997,0.664,2.298h-2.116c-0.302-0.362-0.482-1.148-0.725-2.298c-0.182-0.966-0.786-1.45-1.995-1.45h-1.028
		V189.943z M655.371,184.623h1.027c1.21,0,2.178-0.361,2.178-1.328c0-0.909-0.605-1.451-1.996-1.451c-0.604,0-0.966,0.06-1.209,0.12
		V184.623z"/>
</g>
</svg>
