<?xml version="1.0" encoding="utf-8"?>
<!-- Generator: Adobe Illustrator 15.0.0, SVG Export Plug-In . SVG Version: 6.00 Build 0)  -->
<!DOCTYPE svg PUBLIC "-//W3C//DTD SVG 1.1//EN" "http://www.w3.org/Graphics/SVG/1.1/DTD/svg11.dtd">
<svg version="1.1" id="Layer_1" xmlns="http://www.w3.org/2000/svg" xmlns:xlink="http://www.w3.org/1999/xlink" x="0px" y="0px"
	 width="549px" height="295.763px" viewBox="0 0 549 295.763" enable-background="new 0 0 549 295.763" xml:space="preserve">
<g>
	<defs>
		<rect id="SVGID_1_" x="2.072" y="2.836" width="544.856" height="290.089"/>
	</defs>
	<clipPath id="SVGID_2_">
		<use xlink:href="#SVGID_1_"  overflow="visible"/>
	</clipPath>
	<g clip-path="url(#SVGID_2_)">
		<defs>
			<rect id="SVGID_3_" x="2.072" y="2.836" width="544.856" height="290.089"/>
		</defs>
		<clipPath id="SVGID_4_">
			<use xlink:href="#SVGID_3_"  overflow="visible"/>
		</clipPath>
		<path clip-path="url(#SVGID_4_)" fill="#F1F9FE" d="M92.566,79.406c-13.271,0-24.065,14.982-24.065,33.402v84.076
			c0,18.418,10.794,33.4,24.065,33.4h363.868c13.27,0,24.066-14.982,24.066-33.4v-84.076c0-18.42-10.797-33.402-24.066-33.402
			H92.566z"/>
		<path clip-path="url(#SVGID_4_)" fill="#F1F9FE" d="M469.617,193.248c0,14.445-8.482,26.156-18.947,26.156H98.333
			c-10.464,0-18.948-11.711-18.948-26.156v-76.804c0-14.446,8.484-26.158,18.948-26.158H450.67
			c10.465,0,18.947,11.712,18.947,26.158V193.248z"/>
		<path clip-path="url(#SVGID_4_)" fill="none" stroke="#000000" stroke-width="2.867" d="M469.617,193.248
			c0,14.445-8.482,26.156-18.947,26.156H98.333c-10.464,0-18.948-11.711-18.948-26.156v-76.804c0-14.446,8.484-26.158,18.948-26.158
			H450.67c10.465,0,18.947,11.712,18.947,26.158V193.248z"/>
		
			<line clip-path="url(#SVGID_4_)" fill="none" stroke="#000000" stroke-width="2.867" x1="211.406" y1="90.523" x2="211.406" y2="218.967"/>
		
			<line clip-path="url(#SVGID_4_)" fill="none" stroke="#000000" stroke-width="2.867" x1="341.59" y1="90.523" x2="341.59" y2="218.967"/>
		<path clip-path="url(#SVGID_4_)" d="M181.468,173.26v8.619c-8.799,11.492-20.042,17.236-33.733,17.236
			c-11.287,0-20.917-3.625-28.883-10.875c-8.797-8.037-13.194-18.75-13.194-32.133c0-13.548,4.071-24.671,12.208-33.374
			c8.14-8.703,18.686-13.053,31.643-13.053c5.356,0,10.32,0.909,14.888,2.731c4.567,1.823,7.392,2.731,8.47,2.731
			c2.329,0,4.361-1.951,6.106-5.847h2.496v28.121h-2.496c-2.415-6.701-5.721-11.977-9.925-15.825
			c-4.205-3.848-8.784-5.772-13.735-5.772c-6.203,0-11.135,3.575-14.795,10.724c-3.666,7.149-5.496,16.731-5.496,28.75
			c0,24.865,6.38,37.295,19.139,37.295C164.135,192.59,173.239,186.146,181.468,173.26"/>
		<path clip-path="url(#SVGID_4_)" d="M300.463,195.086v2.879h-49.218v-2.879c4.942,0.166,8.159-0.453,9.656-1.863
			c1.494-1.406,2.244-4.262,2.244-8.563v-60.524c0-4.426-0.737-7.299-2.214-8.623c-1.475-1.325-4.703-1.927-9.687-1.802v-2.879
			h49.218v2.879c-4.689-0.167-7.762,0.411-9.219,1.74c-1.461,1.324-2.189,4.217-2.189,8.685v60.524c0,4.387,0.729,7.262,2.189,8.627
			C292.701,194.652,295.773,195.252,300.463,195.086"/>
		<path clip-path="url(#SVGID_4_)" d="M440.17,197.965h-72.557v-2.879h2.75c4.203,0,7.037-0.807,8.49-2.422
			c1.207-1.443,1.813-4.131,1.813-8.059v-60.474c0-4.465-0.826-7.36-2.469-8.686c-1.643-1.323-5.174-1.901-10.584-1.734v-2.879
			h51.154v2.879c-0.953-0.125-1.818-0.187-2.6-0.187c-4.004,0-6.645,0.766-7.924,2.302c-1.113,1.332-1.67,4.069-1.67,8.22v61.451
			c0,3.447,0.643,5.563,1.926,6.352c0.992,0.623,2.814,0.932,5.467,0.932h2.418c11.969,0,19.898-9.223,23.793-27.672h3.166
			L440.17,197.965z"/>
		<g opacity="0.25" clip-path="url(#SVGID_4_)">
			<g>
				<defs>
					<rect id="SVGID_5_" x="40.446" y="2.836" width="506.482" height="280.287"/>
				</defs>
				<clipPath id="SVGID_6_">
					<use xlink:href="#SVGID_5_"  overflow="visible"/>
				</clipPath>
				<path clip-path="url(#SVGID_6_)" fill-rule="evenodd" clip-rule="evenodd" fill="#F1F9FE" d="M483.428,189.93l2.875,0.945
					l3.092,1.598l4.205,3.42l3.318,3.303c-0.074-0.072,2.365,2.268,3.072,2.947c0.4,0.324,6.063,4.896,6.063,4.896l5.758,5.625
					l2.508,3.523l0.832,11.734l-10.861-2.918l-4.848-2.984l-3.871-3.148l-3.484-3.088l-3.135-3.148
					c-0.1-0.096-5.578-5.836-5.916-6.184c-0.107-0.111-2.566-2.551-2.855-2.838c-0.314-0.268-3.012-2.588-3.012-2.588
					L483.428,189.93z"/>
				<polygon clip-path="url(#SVGID_6_)" fill-rule="evenodd" clip-rule="evenodd" fill="#F1F9FE" points="260.979,104.33 
					262.949,101.755 267.988,101.377 271.255,102.927 273.745,104.456 277.598,108.189 275.706,114.716 272.19,117.195 
					268.279,118.06 263.68,116.426 260.017,112.843 259.416,108.849 260.049,105.552 				"/>
				<path clip-path="url(#SVGID_6_)" fill-rule="evenodd" clip-rule="evenodd" fill="#F1F9FE" d="M240.149,93.558l2.431,0.106
					c0,0,3.42,1.529,3.817,1.705c0.305,0.109,0.979,0.35,1.139,0.405c0.175,0.056,1.047,0.329,1.328,0.419
					c0.319,0.075,3.037,0.739,3.037,0.739l3.147,2.533l8.179,15.08l-16.395-2.447l-3.142-1.091
					c-0.104-0.035-3.481-1.272-3.481-1.272l-5.554-3.423c0,0-0.325-2.304-0.389-2.752l-0.199-0.403l-3.43-10.011L240.149,93.558z"/>
				<polygon clip-path="url(#SVGID_6_)" fill-rule="evenodd" clip-rule="evenodd" fill="#F1F9FE" points="511.34,261.709 
					512.266,260.52 515.406,258.484 518.814,258.57 522.646,259.553 525.479,262.439 533.715,273.938 520.568,274.766 
					518.527,274.889 510.342,269.865 509.742,263.756 				"/>
				<polygon clip-path="url(#SVGID_6_)" fill-rule="evenodd" clip-rule="evenodd" fill="#F1F9FE" points="505.375,254.584 
					507.533,253.746 511.107,253.807 515.543,255.057 517.475,258.82 518.584,264.619 513.506,268.617 508.846,269.451 
					503.277,266.979 500.541,261.896 502.447,255.717 				"/>
				<path clip-path="url(#SVGID_6_)" fill-rule="evenodd" clip-rule="evenodd" fill="#F1F9FE" d="M496.113,249.68l3.305-1.043
					l4.285,1.486l2.867,2.482l6.873,11.453c0,0-10.861,0.67-11.049,0.678c-0.141,0.025-2.451,0.416-2.451,0.416l-4.889-2.588
					l-4.6-3.896l2.373-7.951L496.113,249.68z"/>
				<polygon clip-path="url(#SVGID_6_)" fill-rule="evenodd" clip-rule="evenodd" fill="#F1F9FE" points="504.426,260.756 
					508.414,259.186 513.082,262.068 515.773,266.264 514.203,271.746 509.697,275.16 503.904,274.377 500.324,270.027 
					500.279,262.387 				"/>
				<polygon clip-path="url(#SVGID_6_)" fill-rule="evenodd" clip-rule="evenodd" fill="#F1F9FE" points="520.33,246.941 
					522.834,243.656 526.943,243.393 531.869,243.742 534.484,248.646 535.053,252.664 534.152,255.754 532.252,258.229 
					528.035,261.057 522.084,258.775 519.283,254.504 518.813,248.93 				"/>
				<polygon clip-path="url(#SVGID_6_)" fill-rule="evenodd" clip-rule="evenodd" fill="#F1F9FE" points="517.199,222.162 
					520.133,223.965 521.254,227.318 509.939,233.33 508.652,231.654 				"/>
				<polygon clip-path="url(#SVGID_6_)" fill="#F1F9FE" points="136.561,29.333 136.851,29.476 142.543,17.797 142.19,17.627 				
					"/>
				<path clip-path="url(#SVGID_6_)" fill="#F1F9FE" d="M386.766,187.592c0.77-2.271,2.986-4.703,6.92-4.73
					c1.295-0.016,2.4,0.168,3.346,0.469c2.496,0.791,3.838,2.4,4.588,3.299l0.459,0.531c5.289,5.445,2.963,9.459,1.719,10.928
					c-4.197,4.959-9.992,0.955-13.109-1.191l-0.141-0.098l-0.133-0.104C385.781,193.123,386.137,189.457,386.766,187.592"/>
				<path clip-path="url(#SVGID_6_)" d="M492.174,253.547c-26.629-13.828-56.967-33.318-83.414-51.68c0,0-1.699-1.203-3.951-0.504
					c-2.256,0.705-8.197,0.791-16.613-2.543c0,0-2.238-1.018-0.408-2.078c1.828-1.063,10.086-0.816,13.35,0.578
					c0,0,0.432-0.777-4.898-2.379c-5.33-1.6-18.514-9.186-22.123-21.252c0,0,12.707,2.674,21.764,11.947
					c9.064,9.268,5.633,7.863,7.982,9.318c2.346,1.445-0.299-1.846-0.902-2.645c-0.607-0.803-0.271-3.771,0.086-4.436
					c0.359-0.66,6.695,3.572,7.854,5.262c1.17,1.689,2.117,5.686,2.111,6.166c0,0.486-1.381-0.346-1.381-0.346
					s-4.967-0.32,0.512,3.07c3.988,2.479,27.299,18.396,70.512,39.906l0.328-2.336l-0.016-0.699l-1.117-1.559l-10.246-11.949
					l-5.127-5.883l-5.611-5.787l-8.662-8.541l-4.506-4.227l-4.797-3.824l-34.994-28.211l-35.082-28.083l-10.871-9.021l-10.492-9.175
					l-20.033-18.837l-7.549-8.045l-7.131-7.893l-6.936-7.763l-6.502-8.001l-5.99-7.771l-5.783-8.226l-5.295-8.137l-5.303-8.321
					l-4.709-8.749l-4.66-8.618l-2.704-4.977l-2.768-4.715l-1.216-2.313l-0.641-2.534l-0.262-2.506l0.213-2.399l1.402,0.659l1.91,0.5
					l1.562,0.464l1.033,1.125l3.591,6.3l1.563,3.104l2.08,3.131l7.238,9.516l7.459,9.752l7.762,9.35l8.07,9.144l8.523,9.239
					l8.854,8.655l9.412,8.802l10.217,8.616l14.924,11.699l15.375,11.291l15.379,11.108l15.635,10.769l44.59,31.288l18.604,13.268
					l17.801,13.961l8.453,7.041l8.471,7.539l7.943,7.707l7.828,8.035l1.875,2.508l1.432,2.738l1.566,3.1l1.869,2.709l1.963,2.383
					l1.029,1.311l0.328,1.174l2.662,7.875l3.219,8.025l1.24,1.938l1.477,1.785l3.389,3.545l3.26,3.363l1.148,1.879l0.602,2.219
					l-0.248,0.33l-0.746-0.256l-2.113-0.621l-2.846-1.061l-2.404-1.479l-2.188-1.74l-1.898-2.133l-3.66-4.1l-2.039-1.932
					l-2.385-1.662l0.85,5.787l0.906,2.902l1.711,2.9l1.195,0.93l1.564,0.957l3.221,1.297l3.254,1.607l1.461,1.094l1.211,1.426
					l-1.984-0.057l-1.66-0.328l-3.438-1.336l-3.35-1.658l-3.66-1.08l-1.561-0.082l-1.58,0.301l-3.08,0.641l-0.379,0.156l-0.18,0.58
					l0.49,0.785l2.463,0.143l2.578,0.705l2.479,1.031l2.367,1.162l4.715,2.703l4.865,2.498l-0.607,0.797l-0.365,0.465l-3.186-0.789
					l-2.996-0.865l-5.877-2.438l-2.787-1.32l-3.094-0.732l-2.834-0.377l-3.332,0.098l-1.287-0.1l-1.18-0.045l-2.652-1.141
					l-2.953-1.816l-2.047-1.941l-2.758-3.834l-1.58-1.85l-1.859-1.822l-1.604-2.16l-1.043-2.004l-1.518-2.102l-0.949-0.875
					L492.174,253.547z"/>
				<polygon clip-path="url(#SVGID_6_)" fill-rule="evenodd" clip-rule="evenodd" fill="#FFFFFF" points="322.482,88.362 
					329.467,96.076 336.891,103.746 352.145,118.385 368.141,132.593 384.479,146.33 418.193,173.568 435.275,187.578 
					452.359,201.965 459.641,208.58 466.438,215.295 477.238,227.775 487.988,240.324 489.479,241.729 491.441,243.428 
					493.459,244.17 494.205,244.432 494.746,244.084 495.064,243.307 494.75,242.135 492.963,239.672 491.545,237.439 
					491.541,236.564 492.236,236.01 492.947,235.961 493.596,236.355 494.557,238.121 495.598,240.125 497.055,242.48 
					498.813,243.561 499.428,243.643 499.807,243.49 498.969,240.338 497.439,237.357 495.525,234.721 493.043,232.119 
					488.162,226.975 486.113,224.152 484.678,221.422 489.287,225.135 492.949,229.23 496.342,233.654 499.361,238.039 
					504.717,247.182 510.494,256.482 512.057,257.447 512.963,257.514 513.332,257.551 510.693,250.367 507.047,243.252 
					502.764,236.623 497.604,230.234 493.379,225.301 489.08,220.807 479.764,211.875 469.627,203.502 458.998,195.408 
					437.836,179.096 427.443,170.865 417.42,161.98 413.496,158.594 409.516,155.469 405.881,152.063 404.396,150.273 
					403.4,148.205 413.32,155.461 423.258,163.219 442.217,178.867 461.508,194.609 481.283,210.264 486.725,214.486 
					492.148,219.285 496.908,224.057 501.645,229.203 504.465,232.795 506.941,236.652 511.691,244.447 516.83,252.096 
					519.842,255.787 523.182,259.4 521.412,253.734 518.979,248.049 515.633,242.672 511.768,237.082 503.572,226.689 
					495.336,216.357 498.371,216.275 495.01,212.162 491.107,208.406 483.094,201.141 474.732,194.35 470.727,190.717 
					466.826,186.957 467.527,186.025 467.605,185.389 467.221,184.662 447.494,170.01 427.682,156.189 387.729,128.439 
					371.156,116.403 354.922,104.286 339.332,91.688 323.637,78.35 318.588,73.59 314.119,68.798 305.426,59.069 301.193,54.127 
					296.617,49.465 291.758,44.822 286.496,40.72 295.33,52.576 303.914,64.581 312.797,76.56 				"/>
				<polygon clip-path="url(#SVGID_6_)" fill-rule="evenodd" clip-rule="evenodd" fill="#FFFFFF" points="495.693,207.021 
					492.328,203.791 489.25,200.727 485.818,197.938 483.775,196.881 481.402,196.102 484.59,198.844 487.676,201.898 
					493.547,208.049 496.545,211.057 499.777,213.924 503.211,216.711 506.893,218.975 508.029,219.281 507.967,218.465 
					506.855,216.904 501.736,211.9 				"/>
				<polygon clip-path="url(#SVGID_6_)" fill-rule="evenodd" clip-rule="evenodd" fill="#FFFFFF" points="268.16,108.643 
					266.762,107.981 266.338,108.013 266.138,108.277 266.004,108.979 266.115,109.724 267.199,110.783 268.695,111.313 
					269.516,111.134 270.105,110.719 270.272,110.133 269.734,109.613 				"/>
				<polygon clip-path="url(#SVGID_6_)" fill-rule="evenodd" clip-rule="evenodd" fill="#FFFFFF" points="247.119,102.449 
					245.478,101.935 243.986,101.405 241.06,100.1 239.869,100.048 240.081,100.666 240.557,101.635 240.661,102.383 
					243.057,103.861 245.81,104.872 248.389,105.763 251.314,106.2 249.963,103.705 248.956,102.898 				"/>
				<polygon clip-path="url(#SVGID_6_)" fill-rule="evenodd" clip-rule="evenodd" fill="#FFFFFF" points="340.738,135.079 
					339.314,133.031 337.271,131.093 335.416,130.154 334.699,130.198 334.191,130.855 333.873,132.512 334.65,134.163 
					335.762,135.533 337.703,136.914 339.74,137.976 341.924,139.025 346.326,140.358 346.029,139.494 345.449,138.652 
					343.609,137.52 341.861,136.448 				"/>
				<polygon clip-path="url(#SVGID_6_)" fill-rule="evenodd" clip-rule="evenodd" fill="#FFFFFF" points="371.852,157.697 
					372.473,157.785 373.029,157.93 373.576,157.58 373.643,157.131 372.869,155.492 371.67,154.563 368.746,153.252 
					367.705,153.004 367.17,153.359 366.951,153.998 367.602,155.273 368.787,156.207 				"/>
				<polygon clip-path="url(#SVGID_6_)" fill-rule="evenodd" clip-rule="evenodd" fill="#FFFFFF" points="520.176,268.281 
					520.891,268.238 521.611,268.195 520.494,266.629 519.273,265.393 517.912,265.043 517.258,265.025 516.715,265.375 
					516.459,265.703 516.486,266.021 517.598,266.701 				"/>
				<polygon clip-path="url(#SVGID_6_)" fill-rule="evenodd" clip-rule="evenodd" fill="#FFFFFF" points="511.457,261.961 
					511.268,260.957 511.053,260.539 510.156,260.287 508.691,260.262 507.727,260.637 507.543,261.215 507.941,261.943 
					509.66,262.705 510.762,262.506 				"/>
				<polygon clip-path="url(#SVGID_6_)" fill-rule="evenodd" clip-rule="evenodd" fill="#FFFFFF" points="501.035,258.381 
					501.656,258.275 502.375,258.23 501.535,256.84 500.395,255.848 499.328,255.477 498.063,255.873 497.893,256.455 
					498.717,257.154 				"/>
				<polygon clip-path="url(#SVGID_6_)" fill-rule="evenodd" clip-rule="evenodd" fill="#FFFFFF" points="508.725,267.297 
					508.414,266.818 507.766,266.42 506.801,266.803 506.807,267.68 507.303,268.281 507.91,268.365 508.557,267.875 				"/>
				<polygon clip-path="url(#SVGID_6_)" fill-rule="evenodd" clip-rule="evenodd" fill="#FFFFFF" points="528.426,252.188 
					528.209,250.693 527.824,249.965 526.922,249.898 526.203,249.945 525.494,250.881 525.613,252.316 526.371,253.459 
					527.213,253.785 527.748,253.43 528.26,252.76 				"/>
				<polygon clip-path="url(#SVGID_6_)" fill-rule="evenodd" clip-rule="evenodd" fill="#FFFFFF" points="515.088,229.371 
					514.715,228.258 513.795,227.691 				"/>
				<path clip-path="url(#SVGID_6_)" d="M40.447,27.678c0,0,37.786,8.586,40.908,9.589c3.12,1.007,3.687,0.45,14.255,6.992
					c10.568,6.536,23.145,11.816,31.503,11.885c0,0-3.706-3.726-5.653-4.975c-1.934-1.242-2.858-1.468-4.906-2.046
					c-2.046-0.569-11.659-4.073-8.43-4.221c3.233-0.155,9.166,2.421,10.078,2.654c0.927,0.229,6.825,0.005,8.518,0.27
					c0,0-0.395-1.652-1.467-2.567c-1.065-0.916-10.711-7.707-26.402-8.773c0,0-2.092-0.476-9.183,0.469c0,0-2.564-0.593-6.398-1.728
					C79.43,34.099,42.546,27.678,40.447,27.678"/>
				<path clip-path="url(#SVGID_6_)" d="M61.608,17.401c0,0,17.855,5.215,37.023,8.559c0,0,11.062,2.316,23.482,7.872
					c0,0,5.626,2.17,9.565,3.593c3.933,1.43,16.762,8.162,21.677,15.42c0,0-7.881-1.89-10.442-2.964c0,0-3.61-3.438-6.167-4.513
					c-2.56-1.077-4.142-1.527-2.521,0.275c1.628,1.811,3.117,2.455,3.929,2.877c0.816,0.419-4.915-1.088-5.683-1.119
					c-0.771-0.03-6.392-3.176-7.858-5.263c-1.471-2.09-3.583-7.779-26.303-14.652C98.311,27.487,69.42,21.315,61.608,17.401"/>
				<path clip-path="url(#SVGID_6_)" d="M103.828,17.017c0,0,22.413,7.438,45.899,21.484c0,0,3.872,2.97,15.931,9.667
					c12.052,6.7,19.333,13.961,20.89,17.31c0,0-8.993-4.151-12.423-5.071c0,0-4.321-4.532-5.756-5.268
					c-1.423-0.739-4.492-2.804-5.169-1.574c-0.675,1.219,4.945,4.847,4.945,4.847s-4.248-0.866-5.539-0.923
					c-1.278-0.055-3.938-1.425-5.102-3.108c-1.16-1.695-4.845-9.284-5.77-10.484c-0.908-1.2-0.233-2.907-7.176-6.969
					C137.617,32.864,132.056,29.151,103.828,17.017"/>
				<path clip-path="url(#SVGID_6_)" d="M196.102,71.008c-10.435-8.913-7.626-15.191-7.626-15.191l-1.636-1.324
					c-17.563-16.686-47.463-31.011-47.463-31.011s28.006,13.472,50.144,29.487c0,0,1.626,1.806,12.294,8.639
					c10.667,6.831,18.763,14.997,21.39,19.262c0,0-8.938-4.244-11.91-5.056c0,0-5.755-5.745-7.641-7.083
					c-1.887-1.335-5.265-2.837-4.655-1.07c0.601,1.766,5.908,5.464,6.669,5.988c0.764,0.511-2.86-0.998-4.764-1.372
					C199.014,71.908,196.816,71.617,196.102,71.008"/>
				<path clip-path="url(#SVGID_6_)" d="M126.268,21.083c0,0,24.215,12.723,57.981,24.804c33.757,12.082,51.062,29.72,57.693,34.345
					c0,0,9.782,8.435,10.981,12.926c0,0-9.564-4.083-10.633-4.998c-1.07-0.917-2.327-4.347-5.756-5.75
					c-3.429-1.402-1.348,1.484,0.231,3.388c0,0-3.083,0.348-5.587-0.82c-2.498-1.167-6.868-6.568-7.66-10.372
					c-0.79-3.794,0.859-4.878-0.715-6.785c-1.576-1.898-12.379-11.824-43.784-22.938C147.605,33.778,126.823,21.488,126.268,21.083"
					/>
				<path clip-path="url(#SVGID_6_)" d="M194.506,45.371c0,0,32.7,16.856,38.874,20.887c6.175,4.03,10.272,5.657,25.967,18.111
					c0,0,7.265,3.015,12.864,8.571c5.604,5.549,11.992,13.932,12.189,15.481c0.189,1.556-2.416,0.573-4.299-0.762
					c-1.889-1.342-2.705-2.245-3.936-2.875c-1.223-0.636-0.549-1.374-2.384-3.771c-1.821-2.387-3.601-4.885-6.477-4.914
					c-2.862-0.026,1.517,4.411,3.244,5.542c1.734,1.141-6.391-2.204-8.699-2.787c-2.298-0.58-2.961-1.767-4.274-5.106
					c-1.305-3.336-1.073-6.607-0.496-7.642c0.568-1.04-10.732-11.953-29.425-22.311C208.96,53.428,194.506,45.371,194.506,45.371"/>
				<path clip-path="url(#SVGID_6_)" d="M226.813,60.093c0,0,33.448,20.262,41.342,26.394c7.902,6.136,19.529,16.003,23.82,18.209
					c4.289,2.212,19.193,11.837,22.232,16.791c3.033,4.961,4.049,5.966,3.232,6.031c-0.82,0.058-9.15-3.874-9.912-4.389
					c-0.764-0.515-0.615-0.802-2.092-2.411c-1.475-1.602-4.168-5.292-5.758-4.296c-1.602,0.986,2.48,4.063,4.57,5.508
					c2.09,1.437-10.32-5.086-10.32-5.086s-4.826-6.48-6.232-9.144c-1.424-2.672-1.861-5.2-2.732-6.007
					C284.963,101.692,274.653,88.988,226.813,60.093"/>
				<path clip-path="url(#SVGID_6_)" d="M265.86,77.805c0,0,48.515,34.817,62.128,45.345c13.617,10.527,24.498,16.983,23.033,26.762
					c0,0-6.186-3.067-7.609-4.766c-1.418-1.705-5.066-7.938-8.748-8.873c-3.691-0.934,0.584,3.687,1.289,4.784
					c0,0-5.314-2.254-6.441-2.593c-1.121-0.34-2.238-1.642-2.852-2.447c-0.605-0.795-3.949-7.116-4.742-10.435
					c-0.795-3.311,2.322-1.343-1.25-4.394C317.102,118.141,285.654,92.362,265.86,77.805"/>
				<path clip-path="url(#SVGID_6_)" d="M283.832,89.488c0,0,20.826,13.154,33.854,19.512c13.035,6.357,27.387,20.779,38.717,28.308
					c11.328,7.541,22.119,17.464,26.559,20.843c4.441,3.375,3.969,4.709,6.258,6.736c2.289,2.031,15.949,13.434,14.961,22.361
					c0,0-3.59-0.158-6.801-2.9c-3.213-2.748-1.984-2.115-1.984-2.115s0.615-1.127-0.953-3.029c-1.576-1.902-2.838-4.371-5.199-3.893
					c-2.367,0.477,1.963,4.041,2.678,4.65c0.717,0.611-3.268-2.168-3.268-2.168s-2.391-1.844-5.215-1.965
					c0,0-6.186-8.76-0.973-13.459c0,0,3.088-0.348-2.377-4.725c-5.453-4.385-19.309-15.894-21.457-17.246
					c-2.141-1.343-12.752-9.234-14.227-10.843c-1.475-1.609-21.143-18.286-33.105-23.247
					C311.299,106.309,287.189,92.915,283.832,89.488"/>
				<path clip-path="url(#SVGID_6_)" d="M302.863,95.422c0,0,9.752,7.087,13.375,9.075c3.623,1.993,21.625,15.994,24.826,18.738
					c3.215,2.747,16.852,17.038,17.66,18.427c0.811,1.382,2.795,3.016,5.346,5.054c2.549,2.037,14.621,12.987,12.037,21.466
					c0,0-2.035-1.059-2.652-1.375c-0.613-0.314-1.199-4.01-2.316-5.313c-1.121-1.303-3.676-2.375-4.102-1.623
					c-0.408,0.754-0.053,2.027,1.111,3.234c0,0-17.014-8.176-13.416-16.113c0,0,4.996-1.912-1.105-8.933
					c-6.104-7.022-7.818-11.05-31.379-28.768C322.248,109.292,303.783,97.108,302.863,95.422"/>
				<path clip-path="url(#SVGID_6_)" d="M123.207,50.372c0,0,13.572-3.653,31.36,4.553c0,0,0.636,4.076-6.489,2.709
					c0,0-7.513-2.545-7.84-0.537c-0.315,2.013,7.121,1.372,11.153,4.057c4.036,2.683,6.888,5.123,7.649,6.123
					c0,0-13.594-0.107-28.135-10.872C130.905,56.404,124.122,51.572,123.207,50.372"/>
				<path clip-path="url(#SVGID_6_)" d="M150.733,59.484c0,0,16.22-1.199,37.428,9.252c0.132,0.067,0.277,0.138,0.41,0.207
					c0,0-8.769,0.198-10.409-0.162c-1.647-0.363-5.564-3.239-9.158-3.391c-3.586-0.157,1.163,2.655,3.822,3.549
					c2.661,0.884,6.087,1.803,6.087,1.803s8.772,6.462,9.727,9.011C188.641,79.754,165.927,71.434,150.733,59.484"/>
				<path clip-path="url(#SVGID_6_)" d="M181.58,71.152c0,0,17.242-0.795,36.243,9.005c0,0,0.238,3.382-3.294,2.652
					c-3.536-0.732-3.012-2.163-8.956-2.803c0,0-2.474,0.667,2.798,3.021c5.264,2.35,5.925,2.571,5.925,2.571
					s5.193,5.819,6.062,6.625c0.861,0.813-1.454,1.195-3.04,0.74C215.727,92.51,193.534,84.209,181.58,71.152"/>
				<path clip-path="url(#SVGID_6_)" d="M216.458,85.012c0,0-2.192-1.734,0.782-1.411c2.974,0.318,23.27,2.557,36.119,12.568
					c0,0-7.546-0.138-9.798-0.33c-2.251-0.195-3.223-0.813-4.246-1.343c-1.027-0.526-4.9-2.528-5.936-1.61
					c-1.032,0.924,7.357,4.275,9.706,4.764c0,0,7.938,7.967,9.57,9.296c1.631,1.326,0.444,2.531-7.277-0.123
					C237.65,104.176,218.316,90.214,216.458,85.012"/>
				<path clip-path="url(#SVGID_6_)" d="M245.138,97.744c0,0,14.021-1.395,37.47,12.03c0.131,0.078,0.264,0.151,0.395,0.231
					c0,0,4.881,4.452,3.701,5.175c-1.178,0.718-4.299-1.25-6.908-1.745c0,0-5.315-3.225-8.173-4.217
					c-2.861-0.995-3.29,0.242,0.089,2.217c3.371,1.984,7.051,2.922,7.823,2.951c0.766,0.032,3.693,6.141,3.887,7.208
					C283.619,122.673,259.683,114.196,245.138,97.744"/>
				<path clip-path="url(#SVGID_6_)" d="M285.33,120.524c0,0-4.424-5.31,2.082-3.284c6.492,2.018,16.215,6.297,17.539,6.744
					c1.336,0.441,10.742,4.323,14.01,6.489c3.27,2.172,3.799,4.511,2.115,4.243c-1.689-0.265-7.791-1.108-9.32-1.658
					c-1.533-0.551-4.557-1.742-5.686-1.6c-1.127,0.144,1.32,1.892,3.727,2.766c2.402,0.881,5.846,7.01,8.234,8.857
					c0,0-8.504-1.246-16.662-6.903C293.203,130.519,285.33,120.524,285.33,120.524"/>
				<path clip-path="url(#SVGID_6_)" d="M318.492,137.985c0,0,15.729,2.421,34.342,16.253c0,0,1.986,2.109-0.32,1.535
					c-2.309-0.588-5.529-1.885-6.76-2.039c-1.229-0.15-2.648-2.333-5.361-3.127c-2.711-0.798-1.439,0.717-0.422,1.723
					c1.023,1.01,2.141,1.822,3.467,2.275c0,0,1.404,4.592,4.002,7.02C347.439,161.625,325.352,151.693,318.492,137.985"/>
				<path clip-path="url(#SVGID_6_)" d="M347.621,157.484c0,0-2.092-1.924,1.041-1.406c3.096,0.523,17.053,4.258,27.164,14.715
					c0.088,0.096,0.17,0.184,0.258,0.279c0,0-0.98,1.307-0.428,2.201c0.564,0.891-3.318-1.107-4.09-1.143
					c-0.764-0.037-4.178-3.85-5.557-4.68c-1.373-0.828-3.16-1.875-4.352-1.158c-1.18,0.727,5.703,5.363,8.828,6.375l3.221,7.471
					C373.707,180.139,355.559,172.586,347.621,157.484"/>
				<path clip-path="url(#SVGID_6_)" d="M394.377,191.551c0,0-2.834-2.184-0.641-2.195c2.184-0.027,2.295,0.898,3.682,2.326
					S400.906,196.057,394.377,191.551"/>
				<path clip-path="url(#SVGID_6_)" d="M56.024,41.304c0,0,10.314,1.023,18.604,4.583c8.288,3.554,34.175,16.326,42.502,14.178
					c8.335-2.148,10.897-3.409,16.103-1.012c5.199,2.393,4.583,2.936,9.059,4.958c0,0-6.972-0.873-9.58-0.646
					c-2.619,0.229-0.983,1.217,2.523,2.169c3.515,0.947,13.406,2.18,13.406,2.18s-5.562,5.011-20.7,0.353
					c0,0-10.236-3.412-14.292-5.07c-4.047-1.66-15.017-4.875-21.006-7.538"/>
				<path clip-path="url(#SVGID_6_)" d="M176.12,75.344c3.238,1.685,5.387,3.043,6.546,3.897c1.993,1.453,0.905,1.755-0.496,1.46
					c-1.392-0.29-8.438,0.09-12.514,1.285c-4.079,1.188-13.887-1.857-16.619-2.55c-2.721-0.69-3.197-1.51-7.502-2.152
					c-4.313-0.644-26.293-7.535-30.773-8.989c-4.481-1.452-24.099-7.557-40.67-8.502c0,0,19.06,0.941,30.869,4.311
					c11.805,3.367,33.84,11.859,39.451,9.02c5.597-2.841,14.788-5.408,23.081-1.854c1.719,0.739,3.299,1.459,4.727,2.129
					c0,0-0.314,1.15-5.778,0.913c-5.466-0.239-5.046,0.697-2.203,1.729c2.847,1.037,12.123,2.243,11.535,0.501
					C175.175,74.802,176.12,75.344,176.12,75.344"/>
				<path clip-path="url(#SVGID_6_)" d="M121.754,74.767c0,0,22.061,3.926,27.4,4.959c5.332,1.03,21.651,2.425,24.442,2.998
					c2.786,0.583,17.445-2.891,28.009,4.993c0,0-6.19-0.614-8.915-1.302c-2.729-0.691-2.976-0.248-1.163,0.971
					c1.815,1.222,3.023,1.849,5.025,2.164c2.003,0.317,10.792,1.263,12.547,2.028c0,0-10.461,2.627-28.377-3.74
					c0,0-4.714-3.29-8.773-3.813C167.883,83.508,133.625,78.023,121.754,74.767"/>
				<path clip-path="url(#SVGID_6_)" d="M142.748,83.445c0,0,42.712,10.989,48.108,11.908c5.39,0.917,9.529,0.76,13.354,0.01
					c3.835-0.744,15.454-3.777,29.758,6.315c0,0-5.132-3.072-13.925-3.458c0,0-5.042-0.446,0.704,2.089
					c5.754,2.528,5.644,0.471,11.098,2.422c5.445,1.949,4.891,2.379,3.56,2.551c-1.34,0.169-9.424,1.306-32.262-5.168
					c0,0-3.2-1.507-7.691-2.394C190.966,96.843,145.053,84.343,142.748,83.445"/>
				<path clip-path="url(#SVGID_6_)" d="M160.597,91.071c0,0,0.186,0.069,0.541,0.199c3.97,1.46,28.846,10.446,46.77,12.592
					c19.535,2.329,28.314,4.424,31.113,4.437c2.787,0.003,16.459-1.116,38.986,13.792c0,0-6.653-3.141-17.505-5.442
					c-10.843-2.299-0.866,2.704,2.468,3.42c3.333,0.714,11.023,3.103,11.023,3.103s-13.874,3.74-36.701-11.182
					c0,0-2.888-3.213-9.141-3.714C228.151,108.276,185.643,102.552,160.597,91.071"/>
				<path clip-path="url(#SVGID_6_)" d="M192.796,104.229c0,0,19.645,11.132,60.667,20.11c0,0,13.646,2.3,16.858,2.675
					c3.216,0.368,10.87-0.558,13.905-0.431c3.033,0.138,5.211,1.261,8.291,3.563c3.078,2.299,3.975,3.481,3.975,3.481
					s-3.75-1.078-5.814-1.279c-2.063-0.201-4.064-0.519-4.738,0.14c-0.674,0.654,1.387,1.427,3.564,1.975
					c2.182,0.558,7.398,1.806,9.104,0.97c0,0,7.014,3.049,9.416,6.575c0,0-6.318,0.185-20.055-4.752c0,0-7.439-3.979-13.859-5.854
					C267.686,129.525,215.998,117.917,192.796,104.229"/>
				<path clip-path="url(#SVGID_6_)" d="M231.125,123.711c0,0,57.711,19.865,65.77,20.444c8.078,0.576,12.752-0.018,14.818,0.19
					c2.055,0.196,9.094,0.961,10.783,2.399c1.691,1.447,8.686,7.348,12.738,9.578c0,0-9.086-3.822-12.768-5.581
					c-3.688-1.756-7.086-2.36-7.219-0.996c-0.137,1.361,3.373,2.885,7.377,4.088c3.998,1.205,9.324,3.371,10.111,3.641
					c0.783,0.256-8.135-0.475-11.42,0.988c0,0-8.357-2.883-12.404-5.68c-4.049-2.805-9.191-4.741-10.641-5.486
					C296.82,146.543,234.157,125.557,231.125,123.711"/>
				<path clip-path="url(#SVGID_6_)" d="M251.005,136.678c0,0,0.817,2.999,36.194,13.795c35.369,10.779,33.182,10.8,33.91,11.173
					c0.723,0.375,12.852-5.264,30.252,4.857c0,0,2.287,2.037,2.889,2.637c0.604,0.592-7.389-1.807-12.732-1.689
					c-5.338,0.102,0.047,1.592,1.922,2.131c1.881,0.541,12.797,2.156,14.068,2.096c1.281-0.063,5.49,4.117,5.184,4.678
					c-0.305,0.563-14.697,1.307-35.252-9.869c0,0-3.494-2.66-8.826-4.268c-5.334-1.594-26.152-9.467-33.785-11.397
					C277.189,148.888,258.069,141.327,251.005,136.678"/>
				<path clip-path="url(#SVGID_6_)" d="M258.889,137.589c0,0,55.449,35.754,90.98,41.182c0,0,19.059-0.203,21.959,1.301
					c2.902,1.494,9.061,6.1,9.9,7.389c0,0-4.533-2.484-7.688-2.961c-3.15-0.475-2.193,1.734,0.221,2.982
					c2.416,1.246,8.354,3.445,9.029,2.219c0.672-1.232,2.422,1.248,2.348,1.924c-0.064,0.686-11.725,2.123-29.92-8.26
					c0,0-3.518-2.1-8.23-3.105c-4.729-1.002-24.707-7.576-37.773-13.738C296.652,160.361,265.1,142.656,258.889,137.589"/>
			</g>
		</g>
		<g opacity="0.25" clip-path="url(#SVGID_4_)">
			<g>
				<defs>
					<rect id="SVGID_7_" x="2.072" y="61.471" width="521.801" height="231.455"/>
				</defs>
				<clipPath id="SVGID_8_">
					<use xlink:href="#SVGID_7_"  overflow="visible"/>
				</clipPath>
				<path clip-path="url(#SVGID_8_)" fill-rule="evenodd" clip-rule="evenodd" fill="#F1F9FE" d="M416.623,286.654l2.607,1.529
					l3.246,1.268l5.348,0.895l4.666,0.305c-0.102-0.01,3.266,0.279,4.246,0.357c0.504,0.088,7.682,1.316,7.682,1.316l8.027,0.602
					l4.303-0.447l9.352-7.133l-9.365-6.221l-5.447-1.668l-4.92-0.82l-4.619-0.574l-4.438-0.273c-0.137-0.014-8.063-0.328-8.549-0.35
					c-0.152-0.008-3.611-0.242-4.016-0.271c-0.408-0.055-3.936-0.545-3.936-0.545L416.623,286.654z"/>
				<polygon clip-path="url(#SVGID_8_)" fill-rule="evenodd" clip-rule="evenodd" fill="#F1F9FE" points="205.358,176.297 
					204.725,179.477 207.776,183.512 211.098,184.939 213.891,185.793 219.241,186.219 222.886,180.48 222.42,176.207 
					220.485,172.699 216.22,170.33 211.11,169.949 207.716,172.139 205.659,174.791 				"/>
				<path clip-path="url(#SVGID_8_)" fill-rule="evenodd" clip-rule="evenodd" fill="#F1F9FE" d="M183.506,167.789l1.685,1.752
					c0,0,3.409,1.559,3.801,1.738c0.287,0.156,0.911,0.504,1.061,0.588c0.157,0.092,0.935,0.566,1.188,0.719
					c0.267,0.188,2.564,1.791,2.564,1.791l3.979,0.688l16.722-3.83l-12.672-10.688l-2.896-1.637
					c-0.098-0.057-3.256-1.773-3.256-1.773l-6.239-1.902c0,0-1.945,1.279-2.323,1.529l-0.436,0.117l-9.777,4.039L183.506,167.789z"
					/>
				<polygon clip-path="url(#SVGID_8_)" fill-rule="evenodd" clip-rule="evenodd" fill="#F1F9FE" points="488.934,260.156 
					488.654,261.637 489.199,265.34 491.518,267.84 494.791,270.066 498.826,270.283 512.902,268.859 504.832,258.451 
					503.576,256.838 494.4,254.014 489.414,257.602 				"/>
				<polygon clip-path="url(#SVGID_8_)" fill-rule="evenodd" clip-rule="evenodd" fill="#F1F9FE" points="479.645,260.391 
					480.441,262.559 482.852,265.207 486.719,267.707 490.82,266.666 495.908,263.666 495.549,257.215 493.098,253.166 
					487.563,250.621 481.938,251.928 478.561,257.443 				"/>
				<path clip-path="url(#SVGID_8_)" fill-rule="evenodd" clip-rule="evenodd" fill="#F1F9FE" d="M469.844,256.678l1.4,3.174
					l3.945,2.229l3.766,0.514l13.135-2.41c0,0-6.676-8.596-6.797-8.742c-0.07-0.121-1.305-2.113-1.305-2.113l-5.176-1.961
					l-5.963-0.875l-4.398,7.033L469.844,256.678z"/>
				<polygon clip-path="url(#SVGID_8_)" fill-rule="evenodd" clip-rule="evenodd" fill="#F1F9FE" points="483.648,255.598 
					485.109,259.627 490.357,261.225 495.283,260.473 498.357,255.668 497.945,250.035 493.529,246.201 487.9,246.391 
					482.139,251.408 				"/>
				<polygon clip-path="url(#SVGID_8_)" fill-rule="evenodd" clip-rule="evenodd" fill="#F1F9FE" points="483.793,276.662 
					482.984,280.711 485.502,283.973 489.021,287.436 494.43,286.158 497.82,283.926 499.543,281.207 500.148,278.146 
					499.48,273.115 493.838,270.154 488.781,270.877 484.287,274.209 				"/>
				<polygon clip-path="url(#SVGID_8_)" fill-rule="evenodd" clip-rule="evenodd" fill="#F1F9FE" points="463.127,290.689 
					466.428,291.701 469.684,290.322 466.713,277.863 464.607,278.004 				"/>
				<polygon clip-path="url(#SVGID_8_)" fill="#F1F9FE" points="61.777,144.461 62.142,144.615 67.142,132.624 66.844,132.502 				
					"/>
				<path clip-path="url(#SVGID_8_)" fill="#F1F9FE" d="M350.979,215.662c-1.199,2.076-1.559,5.346,1.025,8.318
					c0.848,0.982,1.715,1.689,2.559,2.199c2.25,1.354,4.342,1.295,5.51,1.264l0.707-0.004c7.578,0.369,9.053-4.033,9.33-5.938
					c0.949-6.426-5.887-8.127-9.557-9.049l-0.166-0.039l-0.166-0.031C354.479,211.264,351.963,213.955,350.979,215.662"/>
				<path clip-path="url(#SVGID_8_)" d="M470.145,251.17c-27.98-10.846-62.656-20.729-93.912-28.439c0,0-2.031-0.48-2.994-2.635
					c-0.963-2.158-4.824-6.674-12.895-10.783c0,0-2.234-1.01-1.822,1.068c0.414,2.07,6.053,8.105,9.254,9.635
					c0,0-0.295,0.834-5.021-2.105c-4.723-2.941-19.129-7.82-30.566-2.551c0,0,10.408,7.764,23.346,8.432
					c12.947,0.678,9.627-0.969,12.271-0.168c2.633,0.807-1.586,0.998-2.588,1.07c-1,0.07-3.006,2.285-3.266,2.998
					c-0.256,0.703,7.105,2.66,9.143,2.416c2.035-0.24,5.66-2.174,6.02-2.496c0.359-0.32-1.176-0.805-1.176-0.805
					s-3.518-3.516,2.645-1.648c4.5,1.363,31.844,8.328,76.557,26.539l-1.541,1.795l-0.535,0.445l-1.908,0.193l-15.736,0.207
					l-7.803,0.043l-8.053-0.387l-12.139-0.854l-6.143-0.588l-6.049-1.07l-44.295-7.615l-44.264-7.766l-13.955-2.197l-13.816-1.809
					l-27.377-2.582l-11.025-0.35l-10.639-0.133l-10.406-0.072l-10.305,0.408l-9.792,0.641l-9.995,1.096l-9.604,1.406l-9.751,1.518
					l-9.676,2.25l-9.55,2.197l-5.52,1.262l-5.367,1.041l-2.54,0.615l-2.325,1.197l-2.052,1.459l-1.659,1.746l1.417,0.615
					l1.644,1.104l1.375,0.865l1.53,0.031l7.101-1.471l3.363-0.877l3.724-0.51l11.924-0.857l12.247-0.854l12.15-0.352l12.194,0.012
					l12.571,0.293l12.342,0.922l12.829,1.244l13.219,1.971l18.644,3.471l18.636,4.074l18.502,4.201l18.412,4.613l52.945,12.779
					l22.26,5.188l22.238,4.135l10.873,1.689l11.258,1.371l11.031,0.869l11.205,0.564l3.117-0.254l3.002-0.734l3.363-0.873
					l3.268-0.389l3.088-0.094l1.662-0.102l1.098-0.527l7.67-3.209l8.15-2.889l2.273-0.35l2.314-0.072l4.904,0.201l4.674,0.225
					l2.168-0.381l2.063-1.012l0.084-0.414l-0.684-0.387l-1.865-1.178l-2.678-1.43l-2.695-0.828l-2.752-0.49l-2.854-0.02
					l-5.494-0.035l-2.803-0.254l-2.818-0.695l4.904-3.182l2.773-1.236l3.307-0.637l1.488,0.287l1.752,0.535l3.102,1.563l3.361,1.379
					l1.785,0.375l1.871-0.031l-1.357-1.459l-1.342-1.023l-3.277-1.697l-3.459-1.42l-3.227-2.027l-1.092-1.119l-0.816-1.385
					l-1.559-2.734l-0.133-0.389l0.314-0.521l0.914-0.146l1.736,1.75l2.232,1.473l2.412,1.176l2.436,1.008l5.146,1.754l5.09,2
					l0.193-0.984l0.109-0.58l-2.699-1.869l-2.627-1.676l-5.711-2.799l-2.832-1.219l-2.602-1.84l-2.154-1.875l-2.131-2.566
					l-0.922-0.902l-0.816-0.854l-2.611-1.238l-3.309-1.018l-2.811-0.248l-4.701,0.463l-2.432,0.035l-2.598-0.188l-2.682,0.225
					l-2.193,0.541l-2.576,0.252l-1.285-0.137L470.145,251.17z"/>
				<polygon clip-path="url(#SVGID_8_)" fill-rule="evenodd" clip-rule="evenodd" fill="#FFFFFF" points="234.025,233.006 
					244.429,233.15 255.092,233.648 276.164,235.422 297.398,238.035 318.508,241.217 361.232,248.516 383.031,252.072 
					405.117,255.383 414.893,256.475 424.428,257.137 440.932,256.994 457.453,256.768 459.496,256.959 462.068,257.307 
					463.955,258.326 464.643,258.715 464.742,259.352 464.367,260.105 463.279,260.645 460.248,260.932 457.641,261.344 
					456.979,261.918 457.025,262.807 457.459,263.371 458.182,263.596 460.143,263.152 462.33,262.607 465.064,262.145 
					467.035,262.75 467.502,263.158 467.639,263.545 464.721,264.996 461.479,265.82 458.238,266.127 454.637,265.98 
					447.551,265.719 444.076,266.045 441.084,266.777 446.914,267.781 452.41,267.822 457.971,267.443 463.256,266.811 
					473.654,264.783 484.455,262.973 486.211,263.508 486.855,264.141 487.133,264.4 479.996,267.166 472.244,269.131 
					464.438,270.299 456.238,270.652 449.744,270.742 443.531,270.488 430.668,269.398 417.684,267.326 404.584,264.701 
					378.359,259.6 365.316,257.246 352.021,255.594 346.887,254.887 341.91,253.963 336.955,253.49 334.629,253.557 332.42,254.18 
					344.42,256.828 356.811,259.15 381.082,263.037 405.643,267.109 430.461,271.602 437.225,272.896 444.414,273.795 
					451.145,274.211 458.133,274.363 462.689,274.104 467.227,273.416 476.213,271.826 485.352,270.629 490.105,270.449 
					495.031,270.566 489.611,272.984 483.734,274.914 477.49,275.959 470.738,276.752 457.518,277.471 444.322,278.117 
					446.27,280.453 440.965,280.648 435.564,280.205 424.814,278.992 414.193,277.207 408.82,276.6 403.418,276.156 
					403.182,277.305 402.762,277.781 401.957,277.971 377.922,272.854 354.463,267.123 307.227,255.48 287.244,251.002 
					267.418,246.824 247.662,243.451 227.277,240.49 220.37,239.85 213.819,239.66 200.771,239.566 194.264,239.658 187.74,239.307 
					181.042,238.729 174.487,237.492 189.221,236.283 203.908,234.791 218.764,233.537 				"/>
				<polygon clip-path="url(#SVGID_8_)" fill-rule="evenodd" clip-rule="evenodd" fill="#FFFFFF" points="437.553,284.563 
					432.908,284.17 428.57,283.887 424.213,283.154 422.072,282.318 419.916,281.053 424.078,281.631 428.414,281.926 
					436.906,282.27 441.145,282.531 445.434,283.064 449.793,283.793 453.93,285.059 454.908,285.713 454.256,286.207 
					452.35,286.402 445.209,285.865 				"/>
				<polygon clip-path="url(#SVGID_8_)" fill-rule="evenodd" clip-rule="evenodd" fill="#FFFFFF" points="213.342,178.836 
					211.92,178.227 211.665,177.885 211.731,177.561 212.167,176.996 212.799,176.586 214.313,176.701 215.697,177.473 
					216.107,178.205 216.183,178.924 215.855,179.438 215.11,179.375 				"/>
				<polygon clip-path="url(#SVGID_8_)" fill-rule="evenodd" clip-rule="evenodd" fill="#FFFFFF" points="194.787,167.143 
					193.315,166.25 191.931,165.482 189.018,164.146 188.192,163.287 188.796,163.037 189.835,162.754 190.468,162.338 
					193.159,163.158 195.737,164.557 198.109,165.902 200.375,167.811 197.607,168.441 196.335,168.223 				"/>
				<polygon clip-path="url(#SVGID_8_)" fill-rule="evenodd" clip-rule="evenodd" fill="#FFFFFF" points="281.148,215.828 
					278.672,216.113 275.868,215.861 273.936,215.09 273.495,214.523 273.652,213.703 274.686,212.369 276.438,211.865 
					278.201,211.793 280.518,212.336 282.66,213.162 284.893,214.109 288.809,216.529 287.959,216.879 286.947,217.004 
					284.879,216.369 282.92,215.768 				"/>
				<polygon clip-path="url(#SVGID_8_)" fill-rule="evenodd" clip-rule="evenodd" fill="#FFFFFF" points="318.689,224.229 
					319.166,224.637 319.643,224.957 319.74,225.6 319.449,225.947 317.707,226.449 316.215,226.162 313.301,224.836 
					312.43,224.219 312.342,223.584 312.678,222.996 314.059,222.639 315.549,222.914 				"/>
				<polygon clip-path="url(#SVGID_8_)" fill-rule="evenodd" clip-rule="evenodd" fill="#FFFFFF" points="499.709,262.443 
					500.146,263.006 500.59,263.574 498.678,263.773 496.945,263.676 495.779,262.881 495.334,262.4 495.238,261.764 
					495.316,261.355 495.574,261.17 496.816,261.549 				"/>
				<polygon clip-path="url(#SVGID_8_)" fill-rule="evenodd" clip-rule="evenodd" fill="#FFFFFF" points="489.199,260.08 
					488.326,260.6 487.867,260.717 487.088,260.207 486.1,259.125 485.742,258.152 486.055,257.635 486.867,257.451 488.57,258.234 
					489.154,259.195 				"/>
				<polygon clip-path="url(#SVGID_8_)" fill-rule="evenodd" clip-rule="evenodd" fill="#FFFFFF" points="479.625,254.625 
					479.957,255.158 480.398,255.725 478.799,256.018 477.305,255.813 476.318,255.258 475.781,254.049 476.104,253.537 
					477.174,253.691 				"/>
				<polygon clip-path="url(#SVGID_8_)" fill-rule="evenodd" clip-rule="evenodd" fill="#FFFFFF" points="491.4,254.5 
					490.832,254.582 490.105,254.361 489.758,253.385 490.42,252.805 491.197,252.781 491.664,253.184 491.721,253.994 				"/>
				<polygon clip-path="url(#SVGID_8_)" fill-rule="evenodd" clip-rule="evenodd" fill="#FFFFFF" points="493.08,279.271 
					491.824,280.098 491.018,280.287 490.373,279.652 489.934,279.084 490.164,277.936 491.32,277.074 492.68,276.887 
					493.48,277.307 493.568,277.938 493.402,278.764 				"/>
				<polygon clip-path="url(#SVGID_8_)" fill-rule="evenodd" clip-rule="evenodd" fill="#FFFFFF" points="467.143,284.34 
					466.064,284.801 465.033,284.48 				"/>
				<path clip-path="url(#SVGID_8_)" d="M2.073,61.471c0,0,31.419,22.681,34.236,24.362c2.818,1.676,2.773,2.464,14.666,6.069
					c11.889,3.613,24.166,9.564,29.744,15.791c0,0-5.246-0.321-7.469-0.955c-2.214-0.633-2.995-1.176-4.779-2.328
					c-1.783-1.163-10.766-6.058-8.741-3.536c2.021,2.525,7.872,5.278,8.654,5.806c0.783,0.544,4.515,5.119,5.83,6.214
					c0,0-1.5,0.794-2.892,0.595c-1.395-0.194-12.865-2.941-24.037-14.014c0,0-1.738-1.254-5.716-7.199c0,0-2.139-1.534-5.523-3.661
					C32.659,86.477,3.457,63.046,2.073,61.471"/>
				<path clip-path="url(#SVGID_8_)" d="M8.348,84.145c0,0,15.713,9.949,30.893,22.124c0,0,9.048,6.77,21.425,12.42
					c0,0,5.35,2.784,9.026,4.801c3.669,2.005,17.202,7.185,25.896,6.073c0,0-6.63-4.664-9.125-5.875c0,0-4.97-0.437-7.464-1.645
					c-2.5-1.209-3.883-2.098-1.46-2.074c2.437,0.024,3.903,0.715,4.757,1.047c0.856,0.336-4.064-2.968-4.595-3.524
					c-0.535-0.56-6.607-2.701-9.143-2.419c-2.542,0.278-8.206,2.453-28.38-10.056C40.178,105.017,16.452,87.42,8.348,84.145"/>
				<path clip-path="url(#SVGID_8_)" d="M35.964,116.078c0,0,20.398,11.902,46.461,20.246c0,0,4.786,0.941,17.781,5.562
					c12.995,4.618,23.257,5.281,26.798,4.239c0,0-9.058-4.006-12.017-5.972c0,0-6.257-0.247-7.758-0.834
					c-1.492-0.583-5.07-1.521-4.599-2.844c0.471-1.309,6.908,0.506,6.908,0.506s-3.458-2.612-4.352-3.545
					c-0.886-0.922-3.67-2.01-5.706-1.771c-2.039,0.246-10.169,2.5-11.678,2.598c-1.502,0.114-2.336,1.748-9.974-0.776
					C70.191,130.961,63.729,129.244,35.964,116.078"/>
				<path clip-path="url(#SVGID_8_)" d="M137.471,149.639c-13.587-1.941-16.44,4.318-16.44,4.318l-2.077-0.352
					c-24.129-2.153-54.641-15.122-54.641-15.122s28.619,12.112,55.271,18.141c0,0,2.427,0.025,14.608,3.514
					c12.176,3.488,23.655,4.168,28.593,3.318c0,0-9.094-3.9-11.668-5.594c0,0-8.114-0.52-10.364-1.051
					c-2.249-0.535-5.609-2.078-3.88-2.791c1.723-0.711,8.004,0.828,8.899,1.051c0.889,0.232-2.637-1.488-4.176-2.67
					C140.069,151.23,138.4,149.772,137.471,149.639"/>
				<path clip-path="url(#SVGID_8_)" d="M53.848,130.231c0,0,25.552,9.763,56.934,27.114c31.381,17.348,56.055,18.676,63.91,20.592
					c0,0,12.795,1.768,16.956-0.301c0,0-9.38-4.479-10.777-4.674c-1.398-0.197-4.8,1.125-8.116-0.52
					c-3.323-1.648,0.22-1.994,2.692-2.066c0,0-1.777-2.545-4.311-3.65c-2.525-1.104-9.467-0.814-12.842,1.105
					c-3.371,1.916-3.093,3.867-5.565,3.949c-2.466,0.072-17.055-1.475-46.155-17.695C77.478,137.852,54.521,130.38,53.848,130.231"
					/>
				<path clip-path="url(#SVGID_8_)" d="M117.177,165.387c0,0,34.261,13.396,41.369,15.365c7.104,1.971,11.032,3.967,30.755,7.516
					c0,0,7.062,3.457,14.933,3.99c7.866,0.535,18.381-0.211,19.676-1.086c1.29-0.887-1.169-2.193-3.413-2.727
					c-2.261-0.529-3.477-0.545-4.758-1.051c-1.287-0.498-1.396,0.498-4.41,0.705c-2.992,0.211-6.043,0.525-7.965-1.611
					c-1.912-2.133,4.312-1.781,6.304-1.23c1.999,0.545-5.879-3.34-7.843-4.688c-1.952-1.338-3.281-1.055-6.656,0.17
					c-3.366,1.227-5.665,3.559-6.062,4.678c-0.406,1.111-16.065-0.154-36.192-7.334
					C132.775,170.906,117.177,165.387,117.177,165.387"/>
				<path clip-path="url(#SVGID_8_)" d="M149.579,179.9c0,0,37.314,11.705,47.133,13.576c9.829,1.875,24.913,4.076,29.405,5.838
					c4.493,1.758,21.569,6.58,27.296,5.588c5.726-1.002,7.156-0.904,6.661-1.561c-0.498-0.654-8.955-4.311-9.843-4.535
					c-0.891-0.234-1.009,0.066-3.192,0.023c-2.177-0.051-6.729,0.367-7.029-1.484c-0.32-1.85,4.686-0.82,7.152-0.209
					c2.461,0.619-10.637-4.383-10.637-4.383s-8.054,0.66-10.984,1.367c-2.947,0.695-5.13,2.039-6.312,1.92
					C219.229,196.041,202.886,196.697,149.579,179.9"/>
				<path clip-path="url(#SVGID_8_)" d="M188.681,197.494c0,0,58.191,13.393,75.089,16.652c16.904,3.258,28.938,7.156,35.311-0.406
					c0,0-6.393-2.613-8.609-2.559c-2.217,0.059-9.305,1.443-12.441-0.701c-3.139-2.152,3.156-1.998,4.445-2.195
					c0,0-5.199-2.498-6.205-3.121c-0.997-0.613-2.712-0.594-3.721-0.523c-1,0.072-7.95,1.742-10.964,3.34
					c-3.007,1.596,0.526,2.631-4.122,1.969C252.816,209.283,212.684,202.725,188.681,197.494"/>
				<path clip-path="url(#SVGID_8_)" d="M209.323,203.258c0,0,23.639,6.928,37.021,12.51c13.384,5.58,33.699,6.816,46.832,10.342
					c13.148,3.518,27.73,5.059,33.195,6.156c5.471,1.102,6.16-0.137,9.189,0.242c3.041,0.375,20.625,3.094,26.672-3.553
					c0,0-2.49-2.59-6.674-3.186c-4.184-0.594-2.891-0.092-2.891-0.092s-0.443,1.207-2.912,1.285c-2.463,0.08-5.152,0.76-6.354-1.328
					c-1.209-2.092,4.33-1.197,5.26-1.063c0.932,0.135-3.789-1.016-3.789-1.016s-2.963-0.582-4.918-2.621
					c0,0-10.66,1.15-10.748,8.166c0,0,1.785,2.549-5.109,1.344c-6.898-1.193-24.691-3.988-27.127-4.707
					c-2.426-0.715-15.357-3.465-17.541-3.508c-2.186-0.043-27.699-3.781-39.329-9.479
					C240.101,212.752,214.113,203.514,209.323,203.258"/>
				<path clip-path="url(#SVGID_8_)" d="M226.359,213.617c0,0,11.76,2.637,15.647,4.037c3.892,1.404,26.297,5.658,30.474,6.248
					c4.183,0.594,23.921,1.381,25.5,1.072c1.57-0.305,4.109,0.105,7.326,0.674c3.217,0.564,19.41,2.387,24.063-5.156
					c0,0-2.141-0.828-2.781-1.082c-0.646-0.254-3.803,1.752-5.52,1.775c-1.719,0.02-4.211-1.188-3.928-2.004
					c0.295-0.811,1.486-1.383,3.162-1.309c0,0-17.383-7.365-20.959,0.586c0,0,1.865,5.008-7.434,5.07
					c-9.307,0.063-13.461,1.438-42.331-4.535C249.58,218.994,228.231,213.193,226.359,213.617"/>
				<path clip-path="url(#SVGID_8_)" d="M73.806,108.577c0,0,6.227,12.6,24.144,20.521c0,0,3.477-2.215-2.257-6.659
					c0,0-6.878-3.957-5.586-5.526c1.303-1.57,5.737,4.435,10.417,5.687c4.682,1.256,8.396,1.78,9.649,1.691
					c0,0-9.068-10.127-26.754-13.926C83.418,110.365,75.312,108.471,73.806,108.577"/>
				<path clip-path="url(#SVGID_8_)" d="M98.835,123.207c0,0,9.819,12.962,31.681,21.973c0.137,0.057,0.29,0.118,0.426,0.169
					c0,0-5.647-6.709-7-7.7c-1.361-0.994-6.106-2.036-8.597-4.631c-2.488-2.59,2.759-0.884,5.189,0.52
					c2.419,1.416,5.377,3.378,5.377,3.378s10.645,2.31,13.188,1.342C139.101,138.258,117.844,126.716,98.835,123.207"/>
				<path clip-path="url(#SVGID_8_)" d="M127.981,138.646c0,0,10.801,13.462,30.713,21.243c0,0,2.694-2.057-0.19-4.225
					c-2.887-2.166-3.61-0.83-8.021-4.869c0,0-1.135-2.294,4.117,0.106c5.24,2.393,5.847,2.745,5.847,2.745s7.798,0.049,8.976,0.17
					c1.18,0.107-0.062-1.882-1.452-2.769C166.577,150.153,145.681,138.986,127.981,138.646"/>
				<path clip-path="url(#SVGID_8_)" d="M161.435,155.66c0,0-2.753-0.502-0.542,1.518c2.206,2.02,17.301,15.77,33.306,18.795
					c0,0-5.09-5.57-6.722-7.135c-1.637-1.563-2.743-1.881-3.814-2.299c-1.076-0.42-5.142-2.006-5.131-3.391
					c0.008-1.385,8.07,2.697,9.989,4.137c0,0,11.226,0.693,13.303,1.035c2.07,0.35,2.186-1.34-4.904-5.377
					C189.824,158.895,166.564,153.615,161.435,155.66"/>
				<path clip-path="url(#SVGID_8_)" d="M189.945,168.762c0,0,8.22,11.445,33.794,20.168c0.146,0.049,0.284,0.1,0.433,0.146
					c0,0,6.57,0.719,6.331-0.646c-0.241-1.359-3.779-2.396-5.875-4.029c0,0-5.933-1.857-8.569-3.346
					c-2.635-1.49-1.989-2.629,1.726-1.4c3.714,1.221,6.853,3.361,7.383,3.92c0.53,0.551,7.052-1.285,7.979-1.846
					C234.087,181.166,211.905,168.803,189.945,168.762"/>
				<path clip-path="url(#SVGID_8_)" d="M233.605,183.869c0,0-6.907,0.188-1.088,3.732c5.807,3.539,15.443,8.002,16.652,8.701
					c1.213,0.713,10.346,5.205,14.128,6.225c3.792,1.02,5.899-0.127,4.585-1.213c-1.315-1.094-5.98-5.115-7.404-5.9
					c-1.427-0.787-4.318-2.268-4.959-3.211c-0.635-0.939,2.294-0.258,4.538,0.971c2.249,1.217,9.124-0.248,12.092,0.326
					c0,0-6.555-5.559-16.191-7.943C246.308,183.168,233.605,183.869,233.605,183.869"/>
				<path clip-path="url(#SVGID_8_)" d="M268.627,197.211c0,0,12.212,10.205,34.896,15.029c0,0,2.896,0.098,0.939-1.254
					c-1.969-1.342-5.068-2.904-5.996-3.725c-0.926-0.824-3.5-0.443-5.893-1.959c-2.387-1.506-0.412-1.549,1.014-1.451
					c1.436,0.098,2.787,0.398,4,1.096c0,0,4.373-1.982,7.912-1.635C305.5,203.313,283.449,193.301,268.627,197.211"/>
				<path clip-path="url(#SVGID_8_)" d="M302.514,206.188c0,0-2.822-0.301-0.367,1.705c2.436,1.979,14.465,9.986,28.996,10.662
					c0.133,0.004,0.254,0.008,0.383,0.01c0,0,0.332-1.6,1.367-1.775c1.041-0.168-3.025-1.76-3.561-2.314
					c-0.535-0.549-5.648-0.592-7.18-1.076c-1.531-0.486-3.498-1.133-3.748-2.502c-0.238-1.365,7.793,0.738,10.615,2.414l7.736-2.521
					C336.756,210.789,319.092,202.158,302.514,206.188"/>
				<path clip-path="url(#SVGID_8_)" d="M358.98,218.754c0,0-3.508-0.682-2.07,0.969c1.426,1.66,2.189,1.133,4.178,1.227
					C363.072,221.049,366.676,220.68,358.98,218.754"/>
				<path clip-path="url(#SVGID_8_)" d="M22.592,64.153c0,0,7.59,7.064,15.738,10.935c8.149,3.867,34.837,14.851,38.729,22.522
					c3.898,7.675,4.646,10.432,9.884,12.75c5.234,2.322,5.234,1.502,9.711,3.524c0,0-5.264-4.656-6.817-6.764
					c-1.557-2.115,0.264-1.542,3.294,0.462c3.035,2.01,10.496,8.617,10.496,8.617s0.085-7.485-13.417-15.767
					c0,0-9.326-5.425-13.252-7.372c-3.923-1.943-13.583-8.051-19.54-10.781"/>
				<path clip-path="url(#SVGID_8_)" d="M127.517,131.778c3.406,1.313,5.841,2.028,7.254,2.337c2.408,0.534,1.912-0.485,0.766-1.344
					c-1.134-0.85-5.509-6.387-7.307-10.236c-1.806-3.845-10.567-9.196-12.896-10.785c-2.315-1.587-3.247-1.403-6.578-4.206
					c-3.33-2.812-23.033-14.753-27.082-17.154c-4.055-2.404-21.6-13.089-33.26-24.902c0,0,13.307,13.683,23.634,20.317
					c10.328,6.633,31.269,17.557,32.844,23.646c1.57,6.074,5.715,14.669,13.865,18.544c1.693,0.802,3.274,1.509,4.723,2.14
					c0,0,0.654-1-3.137-4.943c-3.791-3.943-2.812-4.245-0.156-2.792c2.655,1.447,9.694,7.615,8,8.323
					C126.486,131.426,127.517,131.778,127.517,131.778"/>
				<path clip-path="url(#SVGID_8_)" d="M91.154,91.363c0,0,17.526,13.958,21.828,17.28c4.3,3.322,16.132,14.646,18.408,16.36
					c2.278,1.706,9.358,15.005,22.254,17.722c0,0-4.552-4.241-6.865-5.83c-2.324-1.59-2.154-2.071-0.04-1.517
					c2.116,0.554,3.383,1.047,4.944,2.341c1.559,1.293,8.08,7.263,9.812,8.078c0,0-4.942-9.586-21.561-18.822
					c0,0-5.585-1.364-8.659-4.065C128.201,120.197,101.44,98.116,91.154,91.363"/>
				<path clip-path="url(#SVGID_8_)" d="M111.54,101.38c0,0,36.474,24.789,40.733,28.23c4.25,3.438,6.868,6.65,8.835,10.015
					c1.971,3.368,7.377,14.091,24.407,18.153c0,0-5.702-1.816-11.8-8.162c0,0-3.667-3.489,2.03-0.855
					c5.704,2.646,4.087,3.927,9.158,6.73c5.059,2.797,5.016,2.096,4.265,0.986c-0.756-1.117-5.245-7.939-25.204-20.794
					c0,0-3.242-1.404-6.877-4.19C153.462,128.708,113.735,102.515,111.54,101.38"/>
				<path clip-path="url(#SVGID_8_)" d="M129.06,109.733c0,0,0.174,0.097,0.505,0.274c3.724,2.013,26.908,14.743,40.365,26.773
					c14.658,13.121,22.035,18.326,23.895,20.416c1.843,2.09,10.041,13.088,36.119,20.139c0,0-6.756-2.914-15.655-9.539
					c-8.892-6.619,1.458-2.434,4.197-0.406c2.741,2.029,9.613,6.221,9.613,6.221s-6.362-12.883-32.649-20.148
					c0,0-4.317-0.045-8.831-4.405C186.619,149.058,154.229,120.941,129.06,109.733"/>
				<path clip-path="url(#SVGID_8_)" d="M160.216,125.198c0,0,21.338,7.385,55.187,32.233c0,0,10.75,8.721,13.151,10.885
					c2.401,2.168,6.764,8.523,8.87,10.721c2.109,2.184,4.389,3.074,8.153,3.867c3.761,0.787,5.238,0.68,5.238,0.68
					s-3.284-2.104-4.806-3.518c-1.508-1.416-3.075-2.709-3.023-3.65c0.048-0.938,1.986,0.098,3.842,1.371
					c1.858,1.268,6.243,4.355,6.741,6.189c0,0,6.921,3.244,11.156,2.721c0,0-4.034-4.863-16.82-11.908c0,0-7.903-2.953-13.551-6.529
					C228.699,164.68,185.821,133.565,160.216,125.198"/>
				<path clip-path="url(#SVGID_8_)" d="M200.169,141.086c0,0,53.051,30.173,58.812,35.841c5.769,5.678,8.417,9.578,9.94,10.994
					c1.504,1.414,6.732,6.188,8.927,6.508c2.203,0.309,11.254,1.662,15.604,3.225c0,0-8.873-4.289-12.623-5.891
					c-3.756-1.607-6.455-3.756-5.518-4.758c0.93-1.004,4.391,0.623,7.942,2.834c3.549,2.201,8.691,4.766,9.412,5.178
					c0.717,0.42-5.73-5.789-6.803-9.219c0,0-7.688-4.367-12.464-5.557c-4.781-1.184-9.63-3.762-11.146-4.359
					C260.723,175.293,203.558,142.14,200.169,141.086"/>
				<path clip-path="url(#SVGID_8_)" d="M223.038,147.431c0,0,2.793-1.369,34.278,18.043c31.467,19.412,30.032,17.762,30.797,18.063
					c0.76,0.295,4.547,13.121,23.645,19.492c0,0,3.035,0.367,3.887,0.424c0.838,0.064-6.242-4.348-9.689-8.438
					c-3.449-4.072,1.229-1.02,2.873,0.037c1.65,1.053,10.078,8.172,10.869,9.17c0.803,1,6.723,1.4,6.939,0.801
					c0.217-0.602-8.727-11.893-30.707-19.936c0,0-4.305-0.863-9.039-3.801c-4.719-2.949-24.389-13.367-30.883-17.822
					C249.51,159.012,231.198,149.663,223.038,147.431"/>
				<path clip-path="url(#SVGID_8_)" d="M228.936,152.748c0,0,63.477,17.975,91.035,41.051c0,0,12.447,14.439,15.494,15.621
					c3.035,1.191,10.566,2.77,12.088,2.547c0,0-4.861-1.762-7.303-3.811c-2.436-2.053-0.152-2.795,2.385-1.803
					c2.529,0.984,8.104,3.986,7.629,5.307c-0.477,1.316,2.543,0.994,3.002,0.492c0.469-0.506-6.162-10.207-25.979-16.998
					c0,0-3.902-1.25-7.766-4.125c-3.877-2.887-22.02-13.533-35.281-19.266C270.982,166.033,236.841,154.057,228.936,152.748"/>
			</g>
		</g>
	</g>
</g>
</svg>
