<?xml version="1.0" encoding="utf-8"?>
<!-- Generator: Adobe Illustrator 15.0.0, SVG Export Plug-In . SVG Version: 6.00 Build 0)  -->
<!DOCTYPE svg PUBLIC "-//W3C//DTD SVG 1.1//EN" "http://www.w3.org/Graphics/SVG/1.1/DTD/svg11.dtd">
<svg version="1.1" id="Layer_1" xmlns="http://www.w3.org/2000/svg" xmlns:xlink="http://www.w3.org/1999/xlink" x="0px" y="0px"
	 width="682.695px" height="361.697px" viewBox="0 0 682.695 361.697" enable-background="new 0 0 682.695 361.697"
	 xml:space="preserve">
<rect fill="#232F76" width="682.695" height="361.697"/>
<g>
	<defs>
		<rect id="SVGID_1_" width="682.695" height="361.697"/>
	</defs>
	<clipPath id="SVGID_2_">
		<use xlink:href="#SVGID_1_"  overflow="visible"/>
	</clipPath>
	<path clip-path="url(#SVGID_2_)" fill="#FFFFFF" d="M266.659,119.035v-3.951c-0.342-6.573-2.321-12.005-5.932-16.273
		c-7.231-8.224-22.351-17.755-42.742-16.604h-3.127c-28.099-0.162-61.961,4.275-92.707,21.208
		c-23.515,10.85-9.377,58.524,6.899,80.378c-14.626-62.133-6.575-74.959,55.569-81.527c-11.669,35.827-23.183,71.835-34.86,107.666
		h-7.061l-5.094,15.619h50.135l4.935-15.619h-10.689l8.053-24.989c2.139,0.5,4.275,0.826,6.414,0.994
		c2.131,0.322,4.436,0.322,6.902,0.322c3.95,0,7.721-0.322,11.504-1.146c8.717-1.972,16.772-6.08,24.49-12.331
		c11.03-9.035,18.918-20.871,23.516-35.506C265.174,130.532,266.317,124.452,266.659,119.035 M227.346,142.864
		c-3.113,9.706-6.408,16.771-10.18,21.367c-0.663,0.986-1.476,1.808-2.308,2.468c-3.119,2.788-6.568,4.276-10.346,4.276
		c-3.624,0-5.765-1.146-6.583-3.456c-0.819-2.461-0.168-6.896,1.98-13.307l14.949-46.367l1.815-5.579
		c0.328-0.168,0.658-0.168,0.99-0.335h1.639c6.738,0,10.853,3.624,12.328,10.849C232.938,120.013,231.63,130.045,227.346,142.864
		 M420.222,130.377c-2.459-5.267-8.708-7.899-18.742-7.899c-3.278,0-6.729,0.327-10.347,1.159
		c-3.445,0.815-7.396,2.131-11.507,3.942l4.11-7.409l-10.692-1.963l-2.616,4.441l-18.254,30.242l10.023,2.632
		c2.958-3.611,5.754-6.242,8.23-8.388c1.145-0.982,2.3-1.81,3.277-2.461c3.124-2.135,6.412-3.127,9.857-3.127
		c3.616,0,6.087,0.992,7.076,2.956c1.152,1.973,1.152,5.095-0.156,9.048l-2.639,7.4c-2.627-0.162-4.769-0.327-6.082-0.491h-2.634
		c-2.95,0-5.908,0.164-8.7,0.651c-8.382,1.318-16.11,4.607-23.354,10.024c-9.531,7.077-16.271,16.438-19.89,27.779
		c-2.963,8.879-2.963,16.112,0,21.376c2.629,5.427,7.891,8.058,15.455,8.058c4.275,0,8.881-0.993,13.481-3.124
		c4.603-1.97,9.365-5.097,14.142-9.046l0.165,2.636l0.159,6.738h32.548l4.11-12.659h-7.232l17.911-55.4
		C422.037,144.673,422.861,135.626,420.222,130.377 M377.325,194.319c-1.645,4.769-3.62,8.383-5.906,10.522
		c-0.336,0.33-0.672,0.657-0.991,0.977c-2.313,1.647-4.773,2.476-7.735,2.476c-3.283,0-5.266-1.157-6.076-3.452
		c-0.829-2.462-0.335-6.249,1.472-11.675c2.134-6.907,5.265-12.322,9.21-16.106c0.99-0.995,1.971-1.974,3.13-2.639
		c3.112-2.136,6.401-3.287,10.026-3.287c0.483,0,1.142,0,1.806,0.163c0.815,0.173,1.477,0.335,2.139,0.497L377.325,194.319z
		 M521.472,98.482l-3.604,10.851l7.723-2.31l-34.198,105.869h-6.896l-4.12,12.659h42.912l4.114-12.659h-6.911l36.995-114.738
		l8.039-2.8l3.473-10.686L521.472,98.482z M309.983,173.768c3.617-1.483,7.067-2.793,10.685-3.939
		c3.453-1.319,7.071-2.31,10.684-3.295c1.154-5.424,1.815-10.189,1.815-14.797v-1.314c0-6.081-1.145-11.341-3.456-15.78
		c-3.943-8.229-10.517-12.165-19.728-12.165c-4.756,0-9.69,1.159-14.627,3.451c-5.765,2.632-11.666,6.907-17.428,12.67
		c-11.01,10.836-19.066,24.158-24.16,40.097c-2.469,7.731-3.787,14.47-3.947,20.717v2.791c0.16,4.604,0.988,8.71,2.461,12.334
		c3.781,9.201,10.859,13.809,21.213,13.809c7.23,0,14.295-1.978,21.861-6.084c0.162,0,0.326-0.158,0.496-0.158
		c7.551-4.279,15.276-10.85,23.342-19.403l-1.648-9.035c-5.092,3.777-9.368,6.396-13.313,8.218
		c-3.131,1.318-6.242,2.297-8.877,2.464c-0.658,0.155-1.324,0.155-1.807,0.155c-4.277,0-7.406-1.476-9.212-4.267
		c-1.966-2.968-2.952-7.729-2.952-14.3l13.971-5.927L309.983,173.768z M283.521,165.058c0.332-2.141,0.978-4.435,1.807-6.912
		c2.139-6.895,4.599-11.994,7.398-15.608c0.824-1.153,1.644-2.136,2.631-2.793c1.806-1.809,3.945-2.635,5.914-2.635
		c3.127,0,5.269,1.972,6.243,6.082c0.992,4.113,0.826,10.019-0.485,18.255l-11.672,4.76l-12.818,5.425
		C282.694,169.329,283.032,167.19,283.521,165.058 M490.793,157l19.895-33.037l-8.713-2.463l-2.458,3.61
		c-1.324-0.823-2.64-1.318-3.795-1.473c-1.302-0.495-2.456-0.66-3.779-0.66c-3.113,0-6.404,1.796-9.695,5.086
		c-3.444,3.289-7.561,9.047-12.49,17.261c0-5.579-0.992-10.349-2.961-14.295c-1.972-3.945-4.769-6.905-8.54-8.551l-30.75,25.644
		l4.607,6.735c1.148-0.981,2.302-1.646,3.286-2.13c0.985-0.656,1.807-0.816,2.628-0.816c1.321,0,2.145,0.494,2.305,1.639
		c0.327,0.989,0.165,2.795-0.659,5.261l-17.426,54.081h-7.227l-4.11,12.659h47.014l4.104-12.659h-11.014l13.811-43.234
		c1.972-5.752,4.111-9.861,6.401-12.333c2.477-2.468,5.433-3.613,9.052-3.613c1.646,0,3.28,0.164,4.936,0.661
		C486.854,155.033,488.66,155.849,490.793,157 M540.781,212.273c1.282,0,2.479,0.332,3.591,0.996
		c1.109,0.664,1.988,1.567,2.633,2.71c0.644,1.142,0.966,2.374,0.966,3.695c0,1.329-0.321,2.563-0.963,3.701
		c-0.64,1.139-1.516,2.04-2.627,2.7c-1.111,0.661-2.311,0.991-3.6,0.991c-1.296,0-2.498-0.329-3.609-0.985
		c-1.111-0.659-1.987-1.559-2.628-2.701c-0.641-1.142-0.962-2.377-0.962-3.706s0.322-2.563,0.967-3.706
		c0.644-1.142,1.521-2.044,2.633-2.705C538.293,212.603,539.492,212.273,540.781,212.273 M540.781,213.5
		c-1.651,0-3.062,0.604-4.233,1.812c-1.171,1.208-1.757,2.661-1.757,4.363c0,1.708,0.585,3.163,1.752,4.365
		c1.169,1.2,2.582,1.8,4.238,1.8c1.65,0,3.059-0.602,4.227-1.806c1.168-1.205,1.753-2.657,1.753-4.359s-0.585-3.155-1.757-4.363
		C543.833,214.104,542.424,213.5,540.781,213.5 M539.153,223.651h-1.247v-7.962h2.676c0.944,0,1.613,0.076,2.004,0.23
		c0.39,0.154,0.703,0.412,0.938,0.771c0.233,0.359,0.353,0.742,0.353,1.148c0,0.609-0.206,1.122-0.619,1.541
		s-0.942,0.655-1.59,0.707c0.292,0.125,0.566,0.329,0.824,0.614c0.257,0.285,0.582,0.751,0.976,1.398l0.933,1.552h-1.523
		l-0.676-1.247c-0.489-0.896-0.876-1.478-1.162-1.742c-0.285-0.266-0.666-0.398-1.143-0.398h-0.742V223.651z M539.153,216.769v2.396
		h1.522c0.648,0,1.121-0.098,1.419-0.291c0.299-0.193,0.448-0.499,0.448-0.918c0-0.439-0.145-0.746-0.433-0.923
		c-0.289-0.177-0.8-0.265-1.528-0.265H539.153z"/>
	<path clip-path="url(#SVGID_2_)" fill="#FFFFFF" d="M141.605,277.755v-4.243c2.273,1.05,4.959,1.837,8.058,1.837
		c3.801,0,5.413-1.662,5.413-4.375c0-2.493-1.033-3.456-4.132-4.462l-2.687-0.787c-4.007-1.182-6.445-3.456-6.445-8.531
		c0-5.074,3.099-8.53,9.504-8.53c3.719,0,5.743,0.743,7.313,1.618v4.2c-1.776-0.787-4.09-1.487-7.231-1.487
		c-2.975,0-4.628,1.313-4.628,3.719c0,2.362,0.827,3.368,3.637,4.199l2.644,0.875c4.462,1.356,7.149,3.325,7.149,8.662
		c0,5.687-3.265,9.23-10.124,9.23C146.357,279.68,143.547,278.849,141.605,277.755"/>
	<rect x="165.448" y="249.145" clip-path="url(#SVGID_2_)" fill="#FFFFFF" width="5.124" height="30.01"/>
	<polygon clip-path="url(#SVGID_2_)" fill="#FFFFFF" points="177.391,249.145 184.539,249.145 191.439,271.762 191.563,271.762 
		198.463,249.145 205.572,249.145 205.572,279.155 200.489,279.155 200.489,255.838 200.324,255.838 193.217,279.155 
		189.042,279.155 181.977,255.838 181.854,255.838 181.854,279.155 177.391,279.155 	"/>
	<path clip-path="url(#SVGID_2_)" fill="#FFFFFF" d="M212.225,249.145h9.918c6.652,0,9.999,3.28,9.999,9.23
		c0,6.256-3.761,9.537-9.669,9.537h-5.165v11.242h-5.083V249.145z M221.521,263.887c3.844,0,5.289-1.706,5.289-5.206
		c0-3.937-1.445-5.381-5.206-5.381h-4.297v10.587H221.521z"/>
	<polygon clip-path="url(#SVGID_2_)" fill="#FFFFFF" points="236.854,249.145 241.936,249.145 241.936,274.912 253.917,274.912 
		253.917,279.155 236.854,279.155 	"/>
	<polygon clip-path="url(#SVGID_2_)" fill="#FFFFFF" points="263.216,267.518 254.043,249.145 259.456,249.145 265.944,262.619 
		266.068,262.619 272.555,249.145 277.389,249.145 268.299,267.518 268.299,279.155 263.216,279.155 	"/>
	<rect x="292.39" y="249.145" clip-path="url(#SVGID_2_)" fill="#FFFFFF" width="5.124" height="30.01"/>
	<path clip-path="url(#SVGID_2_)" fill="#FFFFFF" d="M304.331,249.145h9.503c6.529,0,9.877,2.931,9.877,8.793
		c0,4.199-1.943,6.431-5.125,7.743v0.219l7.025,13.255h-5.537l-6.322-12.117h-4.339v12.117h-5.082V249.145z M313.297,263.319
		c3.678,0,5.166-1.706,5.166-5.206c0-3.412-1.57-4.813-5.207-4.813h-3.843v10.019H313.297z"/>
	<path clip-path="url(#SVGID_2_)" fill="#FFFFFF" d="M329.91,249.145h9.503c6.529,0,9.876,2.931,9.876,8.793
		c0,4.199-1.942,6.431-5.124,7.743v0.219l7.024,13.255h-5.537l-6.322-12.117h-4.338v12.117h-5.082V249.145z M338.876,263.319
		c3.678,0,5.165-1.706,5.165-5.206c0-3.412-1.57-4.813-5.206-4.813h-3.843v10.019H338.876z"/>
	<polygon clip-path="url(#SVGID_2_)" fill="#FFFFFF" points="355.487,249.145 373.173,249.145 373.173,253.388 360.57,253.388 
		360.57,261.613 370.363,261.613 370.363,265.812 360.57,265.812 360.57,274.912 373.421,274.912 373.421,279.155 355.487,279.155 	
		"/>
	<path clip-path="url(#SVGID_2_)" fill="#FFFFFF" d="M377.471,277.755v-4.243c2.271,1.05,4.959,1.837,8.058,1.837
		c3.802,0,5.413-1.662,5.413-4.375c0-2.493-1.033-3.456-4.132-4.462l-2.686-0.787c-4.009-1.182-6.446-3.456-6.446-8.531
		c0-5.074,3.099-8.53,9.504-8.53c3.719,0,5.743,0.743,7.313,1.618v4.2c-1.777-0.787-4.091-1.487-7.231-1.487
		c-2.975,0-4.628,1.313-4.628,3.719c0,2.362,0.826,3.368,3.637,4.199l2.645,0.875c4.463,1.356,7.148,3.325,7.148,8.662
		c0,5.687-3.265,9.23-10.124,9.23C382.223,279.68,379.413,278.849,377.471,277.755"/>
	<rect x="401.313" y="249.145" clip-path="url(#SVGID_2_)" fill="#FFFFFF" width="5.124" height="30.01"/>
	<path clip-path="url(#SVGID_2_)" fill="#FFFFFF" d="M411.52,277.755v-4.243c2.271,1.05,4.959,1.837,8.058,1.837
		c3.802,0,5.413-1.662,5.413-4.375c0-2.493-1.033-3.456-4.132-4.462l-2.686-0.787c-4.009-1.182-6.446-3.456-6.446-8.531
		c0-5.074,3.099-8.53,9.504-8.53c3.719,0,5.743,0.743,7.313,1.618v4.2c-1.777-0.787-4.091-1.487-7.231-1.487
		c-2.975,0-4.628,1.313-4.628,3.719c0,2.362,0.826,3.368,3.637,4.199l2.645,0.875c4.463,1.356,7.148,3.325,7.148,8.662
		c0,5.687-3.265,9.23-10.124,9.23C416.271,279.68,413.462,278.849,411.52,277.755"/>
	<polygon clip-path="url(#SVGID_2_)" fill="#FFFFFF" points="441.147,253.388 433.007,253.388 433.007,249.145 454.287,249.145 
		454.287,253.388 446.229,253.388 446.229,279.155 441.147,279.155 	"/>
	<rect x="458.958" y="249.145" clip-path="url(#SVGID_2_)" fill="#FFFFFF" width="5.124" height="30.01"/>
	<path clip-path="url(#SVGID_2_)" fill="#FFFFFF" d="M470.899,249.145h9.917c6.529,0,9.339,2.8,9.339,7.568
		c0,3.149-1.239,5.424-4.628,6.562v0.131c3.554,0.7,5.867,2.8,5.867,7.175c0,4.987-3.182,8.574-9.875,8.574h-10.62V249.145z
		 M479.907,261.918c2.976,0,5.207-1.05,5.207-4.462c0-3.237-1.735-4.331-5-4.331h-4.174v8.793H479.907z M480.816,275.13
		c3.43,0,5.248-1.575,5.248-4.855c0-3.456-1.942-4.769-5.537-4.769h-4.587v9.624H480.816z"/>
	<polygon clip-path="url(#SVGID_2_)" fill="#FFFFFF" points="496.561,249.145 501.644,249.145 501.644,274.912 513.625,274.912 
		513.625,279.155 496.561,279.155 	"/>
	<polygon clip-path="url(#SVGID_2_)" fill="#FFFFFF" points="518.337,249.145 536.022,249.145 536.022,253.388 523.42,253.388 
		523.42,261.613 533.213,261.613 533.213,265.812 523.42,265.812 523.42,274.912 536.271,274.912 536.271,279.155 518.337,279.155 	
		"/>
</g>
</svg>
