<?xml version="1.0" encoding="utf-8"?>
<!-- Generator: Adobe Illustrator 15.0.0, SVG Export Plug-In . SVG Version: 6.00 Build 0)  -->
<!DOCTYPE svg PUBLIC "-//W3C//DTD SVG 1.1//EN" "http://www.w3.org/Graphics/SVG/1.1/DTD/svg11.dtd">
<svg version="1.1" id="Layer_1" xmlns="http://www.w3.org/2000/svg" xmlns:xlink="http://www.w3.org/1999/xlink" x="0px" y="0px"
	 width="521.141px" height="364.099px" viewBox="0 0 521.141 364.099" enable-background="new 0 0 521.141 364.099"
	 xml:space="preserve">
<g>
	<defs>
		<rect id="SVGID_1_" width="521.141" height="364.099"/>
	</defs>
	<clipPath id="SVGID_2_">
		<use xlink:href="#SVGID_1_"  overflow="visible"/>
	</clipPath>
	<path clip-path="url(#SVGID_2_)" fill="#FFFFFF" d="M78.188,364.099c-33.298,0-57.835-17.675-62.511-45.028
		c-4.718-27.622,7.913-52.188,20.194-68.668c-31.049-15.626-26.98-58.273-24.423-85.088c0.218-2.295,0.431-4.521,0.619-6.657
		l0.28-3.083c0.386-4.147,0.748-8.066,0.727-11.854c-0.003-0.461,0.034-2.326,0.037-2.769c-1.466-0.848-3.417-2.007-5.225-3.838
		c-6.016-6.083-8.671-13.577-7.686-21.669c2.431-19.89,25.442-34.466,28.058-36.063c10.138-6.189,21.996-9.598,33.391-9.598
		c12.904,0,24.293,4.199,32.968,11.877c11.68-16.593,33.258-26.917,51.516-26.917c14.286,0,26.121,6.008,33.563,16.583
		c14.929-10.856,33.096-17.1,50.644-17.1c8.794,0,17.206,1.584,24.938,4.648c0.111-4.069,0.231-8.137,0.379-12.203
		c0.699-19.016,11.39-34.37,29.335-42.13c6.874-2.971,14.413-4.542,21.813-4.542c14.974,0,27.489,6.527,34.33,17.905
		c3.605,6,4.979,12.292,5.35,18.499c5.134-3.048,10.617-5.371,16.344-6.91c5.438-1.462,10.878-2.201,16.169-2.201
		c2.355,0,4.695,0.148,6.955,0.446c2.769,0.356,5.232,1.197,7.211,1.871c0.761,0.259,1.537,0.525,2.188,0.706
		c9.559-7.523,22.286-11.899,34.445-11.899c15.087,0,27.947,6.665,35.288,18.281c7.53,11.924,6.396,25.343,5.396,37.185
		c-0.25,2.951-0.487,5.737-0.593,8.437c-0.093,2.348-0.201,4.694-0.312,7.04c-0.235,4.896-0.476,9.954-0.516,14.829
		c-0.003,0.568-0.027,1.258-0.062,2.019c-0.038,0.923-0.111,2.826-0.035,4.047c0.013,0.009,0.024,0.018,0.038,0.031
		c5.017-4.606,11.313-7.165,18.164-7.165c13.912,0,26.752,10.2,31.229,24.801c5.603,18.275,2.513,40.501-8.262,59.45
		c-22.007,38.705-67.071,56.771-100.992,65.112c-22.347,5.494-46.858,8.165-74.935,8.165c-22.315,0-44.175-1.661-62.613-3.285
		c-5.242-0.463-10.481-0.96-15.723-1.46c-16.923-1.611-34.426-3.284-51.51-3.537c-1.518-0.022-3.038-0.034-4.558-0.034
		c-8.093,0-15.474,0.33-22.484,1.01c-0.02,0.29-0.039,0.564-0.054,0.795c-0.093,1.351-0.196,2.634-0.361,3.729
		c-0.912,6.014-1.853,11.343-2.875,16.294C162.749,328.795,125.125,364.099,78.188,364.099"/>
	<path clip-path="url(#SVGID_2_)" fill="#78B12B" d="M78.188,354.213c-24.137,0-48.329-10.832-52.768-36.81
		c-4.552-26.635,9.878-52.945,27.337-71.885c-41.351-7.181-33.476-55.795-30.845-86.005c0.458-5.263,1.074-10.563,1.043-15.85
		c-0.012-2.079,0.323-5.855-0.763-7.839c-1.435-2.627-5.047-3.401-7.278-5.659C0.258,115.343,21.1,95.331,33.405,87.82
		c21.159-12.913,50.974-11.722,63.36,12.61c7.454-33.041,67.407-54.131,79.635-13.378c22.542-22.311,61.5-32.421,88.329-11.497
		c0.271-9.505,0.457-19.018,0.81-28.52c0.567-15.556,9.115-27.255,23.377-33.418c14.522-6.279,34.763-5.562,43.747,9.384
		c6.341,10.545,3.47,23.352,2.96,35.598c7.739-9.313,18.025-16.404,29.771-19.558c6.236-1.673,12.86-2.337,19.284-1.502
		c3.595,0.468,7.073,2.411,10.533,2.824c1.689,1.716,3.059,1.563,4.115-0.462c0.586-0.506,1.17-1.013,1.76-1.517
		c15.45-12.642,43.623-15.437,55.641,3.593c7.334,11.61,3.818,26.326,3.288,39.96c-0.29,7.378-0.774,14.78-0.837,22.169
		c-0.022,2.673-0.64,8.531,0.996,11.098c2.488,3.894,7.885,5.067,10.127,10.037c9.131-20.335,32.91-13.132,38.646,5.575
		c5.192,16.94,1.164,36.597-7.407,51.672c-19.096,33.579-58.729,51.537-94.758,60.394c-43.929,10.801-89.664,8.565-134.324,4.634
		c-22.614-1.992-45.228-4.696-67.95-5.032c-10.164-0.151-20.348,0.161-30.458,1.256c-4.875,0.531-3.936-0.333-5.674,3.761
		c-1.005,2.365-0.857,6.315-1.246,8.881c-0.799,5.285-1.701,10.549-2.781,15.778C155.394,315.54,125.991,354.213,78.188,354.213"/>
	<path clip-path="url(#SVGID_2_)" fill="#FFFFFF" d="M215.185,182.593c30.304-4.413,53.834-31.107,55.406-60.49
		c0.79-28.703-20.77-47.51-50.089-42.307c-29.683,5.27-51.595,31.625-53.353,59.777
		C165.405,167.502,186.176,186.816,215.185,182.593 M202.811,133.068c0.948-17.247,6.182-30.501,16.605-32.288
		c9.938-1.698,14.888,9.75,14.038,27.332c-0.98,20.2-7.088,31.222-17.146,32.754C205.945,162.444,201.864,150.251,202.811,133.068"
		/>
	<path clip-path="url(#SVGID_2_)" fill="#FFFFFF" d="M303.325,169.566c9.876-1.438,26.027-12.116,26.213-18.66
		c0.113-4.157-11.929,1.988-11.042-27.252l0.98-32.532c0.257-8.446,2.22-54.273,2.184-52.958
		c0.366-12.186-10.447-14.595-19.983-13.154l-0.188,0.039c-9.692,2.206-20.804,8.714-21.084,20.734l-0.985,34.778
		c-0.144,8.667-0.391,14.927-0.536,18.732l-1.738,44.578C276.45,161.786,287.063,171.934,303.325,169.566"/>
	<path clip-path="url(#SVGID_2_)" fill="#FFFFFF" d="M369.614,159.911c13.372-1.948,24.044-10.777,32.336-26.522l0.836-0.126
		c2.545,13.337,13.791,20.013,28.186,17.917c10.659-1.551,25.915-12.213,25.919-19.188c0.003-4.303-12.642,1.69-12.543-27.732
		c0.006-1.815,1.84-48.385,1.833-46.804c0.038-12.62-12.261-15.345-22.001-14.005c-11.749,2.669-21.452,10.593-21.584,21.322
		l-0.611,0.105c-6.993-10.442-16.837-14.498-29.318-12.279c-24.678,4.379-40.492,31.391-41.261,59.28
		C330.667,138.532,344.191,163.616,369.614,159.911 M388.38,75.983c9.394-1.596,15.203,8.807,15.012,24.25
		c-0.186,15.339-6.134,27.859-15.839,29.35c-4.73,0.73-8.583-1.264-11.154-5.832c-2.559-4.545-3.858-10.853-3.717-18.549
		C372.969,89.885,379.039,77.566,388.38,75.983"/>
	<path clip-path="url(#SVGID_2_)" fill="#FFFFFF" d="M491.496,129.187c-6.749-6.205-8.613,4.796-9.87,8.995
		c-2.204,7.333-6.71,13.422-12.428,18.132c-13.555,11.175-31.827,16.01-48.146,20.007c-25.242,6.186-51.053,10.924-76.335,12.787
		c-35.143,2.587-69.685,0.047-103.587-0.404c-28.661-0.383-57.396,0.797-84.467,8.776c0.19-5.588,0.335-12.234,0.432-19.998
		l-0.091,0.037c0.299-4.075,0.648-8.673,1.065-13.893l3.288-43.636c0.854-13.397,1.559-20.504,1.59-21.029
		c1.046-16.405-12.745-20.888-24.644-18.779l-0.247,0.045c-11.327,2.003-26.215,10.953-27.449,27.656
		c0.021-0.259-1.249,26.828-3.041,51.169c-1.201,16.355-9.329,30.41-16.961,31.534c-5.887,0.864-8.409-3.982-7.609-14.25
		l3.819-48.928c1.839-23.613-12.032-36.229-31.913-32.71c-11.255,1.995-29.132,15.016-29.904,23.553
		c-0.521,5.795,15.601-2.428,12.322,35.243l-3.373,38.744c-2.209,25.36,10.868,41.286,29.285,38.772
		c14.437-1.969,36.757-15.348,47.936-37.04l0.746-0.108l-0.975,13.244c-0.577,4.271-1.261,7.952-2.111,13.619
		c-39.882,22.826-68.857,54.575-69.322,86.688c-0.468,32.447,31.832,33.142,48.244,31.478c10.884-1.104,28.115-9.301,36.711-17.814
		c9.281-9.268,16.247-20.841,20.876-34.655c4.142-12.36,7.46-30.691,9.96-54.807c26.897-5.35,54.773-4.532,82.814-2.106
		c67.068,5.798,144.184,17.204,210.79-18.352c14.936-7.977,29.278-18.951,38.555-33.972c4.568-7.399,7.708-15.776,8.495-24.631
		C496.496,146.397,496.472,133.76,491.496,129.187 M96.595,298.573c-17.277,30.145-27.114,12.712-26.731,0.484
		c0.003-0.03,0.006-0.064,0.009-0.099c1.403-17.877,19.248-32.327,34.196-42.999C101.769,274.886,100.881,291.093,96.595,298.573"/>
	<path clip-path="url(#SVGID_2_)" fill="#FFFFFF" d="M495.009,33.212c0,6.47-5.078,11.55-11.688,11.55
		c-6.538,0-11.753-5.08-11.753-11.55c0-6.329,5.215-11.407,11.753-11.407C489.931,21.805,495.009,26.883,495.009,33.212
		 M474.485,33.212c0,5.08,3.761,9.113,8.906,9.113c5.008,0,8.693-4.033,8.693-9.041c0-5.08-3.686-9.184-8.764-9.184
		C478.246,24.101,474.485,28.205,474.485,33.212 M481.516,39.196h-2.644V27.79c1.044-0.212,2.504-0.351,4.381-0.351
		c2.155,0,3.13,0.351,3.964,0.838c0.627,0.483,1.115,1.388,1.115,2.504c0,1.249-0.976,2.226-2.365,2.642v0.139
		c1.111,0.417,1.737,1.252,2.083,2.781c0.35,1.74,0.56,2.435,0.837,2.853h-2.852c-0.349-0.418-0.557-1.461-0.905-2.783
		c-0.206-1.252-0.904-1.808-2.364-1.808h-1.25V39.196z M481.583,32.727h1.254c1.459,0,2.642-0.486,2.642-1.669
		c0-1.043-0.766-1.738-2.435-1.738c-0.695,0-1.183,0.067-1.461,0.139V32.727z"/>
</g>
</svg>
